<?xml version="1.0" standalone="no"?><!DOCTYPE svg PUBLIC "-//W3C//DTD SVG 1.1//EN" "http://www.w3.org/Graphics/SVG/1.1/DTD/svg11.dtd"><svg t="1703496024630" class="icon" viewBox="0 0 1024 1024" version="1.1" xmlns="http://www.w3.org/2000/svg" p-id="26865" xmlns:xlink="http://www.w3.org/1999/xlink" width="128" height="128"><path d="M753.664 408.746667s91.733333-24.192 150.613333 34.602666A94.165333 94.165333 0 0 0 938.666667 369.706667c0-50.688-24.874667-96.128-92.672-79.530667-12.970667-47.701333-54.485333-95.146667-109.098667-95.146667-46.506667 0-83.370667 23.765333-101.418667 64.128 20.053333 9.386667 89.770667 48.554667 118.144 149.632z m-31.872 38.954666c145.493333-36.693333 198.912 65.365333 198.912 177.109334 0 110.592-79.786667 204.16-178.986667 204.16H230.570667C150.357333 828.970667 85.333333 748.501333 85.333333 651.349333s73.941333-161.664 159.146667-161.664c9.386667-154.752 107.093333-251.861333 243.157333-251.861333 117.162667 0 206.208 104.576 234.154667 209.92z m-231.893333-27.477333c-42.24 0-75.306667 13.44-99.114667 41.088-23.04 26.112-34.176 59.946667-34.176 101.802667 0 41.472 11.093333 75.264 34.133333 101.418666 23.893333 26.88 56.917333 40.704 99.157334 40.704 27.648 0 51.84-6.144 71.808-17.664 9.984 13.056 19.968 27.264 30.293333 42.24l29.269333-25.344c-9.770667-14.08-19.882667-27.946667-30.378666-41.472 21.546667-25.386667 32.682667-58.794667 32.682666-99.882666 0-42.24-11.52-76.458667-34.56-102.186667-24.234667-27.306667-57.258667-40.704-99.114666-40.704z m0 39.552c28.416 0 50.346667 8.832 65.706666 27.306667 14.933333 18.389333 22.613333 43.776 22.613334 76.032 0 26.453333-5.376 48.384-15.36 65.28-13.056-15.36-26.453333-30.293333-39.936-44.544l-26.112 25.344c12.672 13.44 25.728 28.416 39.552 45.312-14.293333 7.68-30.293333 11.52-46.506667 11.093333-28.373333 0-50.688-9.557333-66.048-28.373333-14.933333-18.432-22.272-43.008-22.272-74.112 0-31.488 7.253333-56.106667 22.272-74.538667 15.786667-19.2 37.674667-28.8 66.090667-28.8z" fill="#e6e6e6" p-id="26866" data-spm-anchor-id="a313x.search_index.0.i47.506d3a81MZQUy1" class="selected"></path></svg>