<?xml version="1.0" standalone="no"?><!DOCTYPE svg PUBLIC "-//W3C//DTD SVG 1.1//EN" "http://www.w3.org/Graphics/SVG/1.1/DTD/svg11.dtd"><svg t="1703561482672" class="icon" viewBox="0 0 1024 1024" version="1.1" xmlns="http://www.w3.org/2000/svg" p-id="8974" data-spm-anchor-id="a313x.search_index.0.i4.cf353a811Gd8zq" xmlns:xlink="http://www.w3.org/1999/xlink" width="128" height="128"><path d="M335.872 731.136L317.44 715.776c-10.24-8.192-243.712-208.896-243.712-399.36 0-144.384 117.76-262.144 262.144-262.144 144.384 0 262.144 117.76 262.144 262.144 0 190.464-233.472 391.168-243.712 399.36l-18.432 15.36z m0-620.544c-113.664 0-205.824 92.16-205.824 205.824 0 137.216 152.576 290.816 205.824 340.992 53.248-49.152 205.824-203.776 205.824-340.992 0-113.664-92.16-205.824-205.824-205.824z" fill="#dbdbdb" p-id="8975" data-spm-anchor-id="a313x.search_index.0.i2.cf353a811Gd8zq" class=""></path><path d="M335.872 452.608c-74.752 0-136.192-61.44-136.192-136.192 0-74.752 61.44-136.192 136.192-136.192 74.752 0 136.192 61.44 136.192 136.192-1.024 74.752-61.44 136.192-136.192 136.192z m0-216.064c-44.032 0-79.872 35.84-79.872 79.872s35.84 79.872 79.872 79.872 79.872-35.84 79.872-79.872-35.84-79.872-79.872-79.872z" fill="#bfbfbf" p-id="8976" data-spm-anchor-id="a313x.search_index.0.i3.cf353a811Gd8zq" class="selected"></path><path d="M852.992 1000.448H185.344c-76.8 0-139.264-50.176-139.264-111.616S108.544 778.24 185.344 778.24h333.824c46.08 0 83.968-30.72 83.968-69.632s-37.888-69.632-83.968-69.632c-15.36 0-27.648-12.288-27.648-27.648s12.288-27.648 27.648-27.648c76.8 0 139.264 56.32 139.264 124.928s-62.464 124.928-139.264 124.928H185.344c-45.056 0-83.968 25.6-83.968 55.296s37.888 55.296 83.968 55.296h667.648c15.36 0 27.648 12.288 27.648 27.648s-12.288 28.672-27.648 28.672z" fill="#FFA028" p-id="8977"></path></svg>