<?xml version="1.0" standalone="no"?><!DOCTYPE svg PUBLIC "-//W3C//DTD SVG 1.1//EN" "http://www.w3.org/Graphics/SVG/1.1/DTD/svg11.dtd"><svg t="1703496472611" class="icon" viewBox="0 0 1024 1024" version="1.1" xmlns="http://www.w3.org/2000/svg" p-id="28340" xmlns:xlink="http://www.w3.org/1999/xlink" width="128" height="128"><path d="M359.5 1005.8c-36 0-73.3-6.9-108.5-21.2-72.8-29.5-118.7-84.6-122.7-147.4-6.2-96.5 56.9-166.3 168.6-186.8 19.4-3.6 69.3-17.7 102.8-38.2-9.1-11.6-16.5-24.5-21.7-38.2-79 7.2-241.3 9.3-311.3-84.4-48.1-64.4-50.1-170.1-4.9-256.9C98 163 157.9 122.6 220.2 124.4c96.6 3 160 72.3 169.8 185.5 1.7 19.3 10.4 67.2 26.3 102 12.5-11.4 27-20.6 42.7-27.1-9.5-77.3-16.3-235.6 71.9-307.6C593.3 26.4 698.8 20 787.5 61.5c71.2 33.3 114.1 90.8 114.8 153.7 1.2 96.5-65.4 162.8-178 177.6-18.6 2.4-64.9 12.5-99.1 29.6 12.7 14.2 22.7 30.7 29.1 48.6 83.3-10.6 230.1-15.3 300.3 68.1 51.7 61.5 59.9 166.9 19.7 256.3-32.2 71.8-89 115.7-151.9 117.4-96.8 2.5-164-63-180.3-175.4-3.3-22.3-15.2-69.2-33.2-102.1-13.2 10.9-28.3 19.3-44.5 25 12.5 81.7 20.3 224-58 295.1-36.4 33.1-90 50.4-146.9 50.4z m42-498.4c15.5 0 29 11.2 31.5 26.9 3.4 21.7 15.2 41 33.1 54.3 7.1 5.3 11.8 13.3 12.7 22.1 1 8.8-1.7 17.6-7.5 24.4-48.5 56.4-161.2 77.8-162.3 78-46.5 8.5-122.6 35.2-117.1 120.1 3.5 54.4 59.2 82.7 83.1 92.4 67.9 27.5 147.2 20.2 188.7-17.4 67-60.9 42.2-219 33-266-1.7-8.8 0.3-17.9 5.6-25 5.3-7.2 13.4-11.8 22.3-12.8 24.5-2.6 46.5-15.9 60.4-36.4 5.2-7.7 13.5-12.7 22.7-13.8 9.3-1.1 18.5 1.9 25.3 8.2 54.4 50 72 164.1 72.2 165.2 6.8 46.9 31.9 123.8 115.6 121.6 54.6-1.5 85-56.3 95.5-79.8 30-66.8 25.6-146.3-10.4-189.1-47.6-56.5-170.8-58.7-270.2-41.9-8.6 1.5-17.4-0.7-24.4-5.9s-11.5-13.1-12.6-21.7c-3.1-26-18.7-49.4-41.8-62.5-8.6-4.9-14.4-13.5-15.8-23.2-1.4-9.8 1.8-19.6 8.7-26.7 51.5-53 164.5-68.4 165.6-68.6 46.8-6.1 124.2-28.9 123.2-113.7-0.6-54.5-54.8-85.8-78.1-96.7-66.3-31.1-145.9-27.9-189.3 7.4-59 48.2-61.3 178.5-45.3 275.5 2.8 17.1-8.5 33.3-25.6 36.5-24.8 4.7-46.1 20-58.2 42.2-4.8 8.7-13.3 14.7-23.1 16.2s-19.8-1.6-26.9-8.5c-54.2-51.9-65.5-171.2-65.6-172.4-4.1-47.2-23.5-125.4-108.3-128-54-2.1-88.1 51.3-100 74.1-33.8 64.9-34 144.5-0.6 189.3 50.2 67.2 199.3 67 279.6 56.2 1.4-0.4 2.9-0.5 4.3-0.5zM821.6 881h0.3-0.3z" fill="#dbdbdb" p-id="28341"></path></svg>