<?xml version="1.0" standalone="no"?><!DOCTYPE svg PUBLIC "-//W3C//DTD SVG 1.1//EN" "http://www.w3.org/Graphics/SVG/1.1/DTD/svg11.dtd"><svg t="1703509397755" class="icon" viewBox="0 0 1024 1024" version="1.1" xmlns="http://www.w3.org/2000/svg" p-id="3915" xmlns:xlink="http://www.w3.org/1999/xlink" width="128" height="128"><path d="M237.955947 275.961233c111.99267 43.851559 151.118943 179.630802 107.168141 291.366344s-161.020617 172.532722-273.024564 128.678908A230.3797 230.3797 0 0 1 36.088106 676.927154c25.426326 65.441269 91.731454 110.224352 161.550661 137.558837 143.698326 56.265868 320.387947-9.15059 376.777867-152.526379s-28.870485-310.400564-172.546255-366.664176c-53.904352-21.100264-111.361128-31.065093-163.914432-19.334203z" fill="#FAE81A" p-id="3916"></path><path d="M909.018784 861.165956C891.013075 882.841374 864.488317 899.947137 833.184141 899.947137H520.230344a76.08726 76.08726 0 0 1-36.313657-13.208247 98.493463 98.493463 0 0 1-46.979947-105.40659 39.737515 39.737515 0 0 1 2.255507-8.731067 98.353621 98.353621 0 0 1 93.962149-69.354572h0.083454a121.226714 121.226714 0 0 1-0.083454-4.256141 120.27489 120.27489 0 0 1 120.247824-120.299701c59.996476 0 106.766661 36.800846 119.907243 95.288388a109.568 109.568 0 0 1 49.323418-10.55126c63.873692 0 115.655612 56.908687 115.655612 120.811701a115.287965 115.287965 0 0 1-29.269709 76.926308z" fill="#A2D9F3" p-id="3917"></path><path d="M686.068722 124.052863h1.472846a4.792952 4.792952 0 0 1 4.792952 4.792952v57.885322a4.792952 4.792952 0 0 1-4.792952 4.792951h-1.472846a4.792952 4.792952 0 0 1-4.792951-4.792951V128.845815A4.792952 4.792952 0 0 1 686.068722 124.052863z m-28.193832 28.250221h57.860511a4.792952 4.792952 0 0 1 4.792951 4.792951v1.387137a4.792952 4.792952 0 0 1-4.792951 4.792951h-57.860511a4.792952 4.792952 0 0 1-4.792952-4.792951v-1.387137a4.792952 4.792952 0 0 1 4.792952-4.792951z m51.558625 150.81896h1.472846a4.790696 4.790696 0 0 1 4.792952 4.792952v57.885321a4.790696 4.790696 0 0 1-4.792952 4.792952h-1.472846a4.790696 4.790696 0 0 1-4.792951-4.792952v-57.885321a4.790696 4.790696 0 0 1 4.792951-4.792952z m-28.193832 28.247965h57.860511a4.792952 4.792952 0 0 1 4.792951 4.792951v1.387137a4.790696 4.790696 0 0 1-4.792951 4.792951h-57.860511a4.790696 4.790696 0 0 1-4.792952-4.792951v-1.387137a4.792952 4.792952 0 0 1 4.792952-4.792951z m-184.27489-116.810432h57.860511a4.792952 4.792952 0 0 1 4.792952 4.792952v1.461568a4.792952 4.792952 0 0 1-4.792952 4.792951h-57.858256a4.792952 4.792952 0 0 1-4.792951-4.792951v-1.461568a4.792952 4.792952 0 0 1 4.792951-4.792952zM686.068722 124.052863h1.472846a4.792952 4.792952 0 0 1 4.792952 4.792952v57.885322a4.792952 4.792952 0 0 1-4.792952 4.792951h-1.472846a4.792952 4.792952 0 0 1-4.792951-4.792951V128.845815A4.792952 4.792952 0 0 1 686.068722 124.052863z m-160.907841 62.251983h1.472846a4.792952 4.792952 0 0 1 4.792951 4.792951v57.885322a4.792952 4.792952 0 0 1-4.792951 4.792951h-1.472846a4.792952 4.792952 0 0 1-4.792951-4.792951V191.104564a4.792952 4.792952 0 0 1 4.792951-4.799718z" fill="#FAE81A" p-id="3918"></path></svg>