<?xml version="1.0" standalone="no"?><!DOCTYPE svg PUBLIC "-//W3C//DTD SVG 1.1//EN" "http://www.w3.org/Graphics/SVG/1.1/DTD/svg11.dtd"><svg t="1703432758102" class="icon" viewBox="0 0 1024 1024" version="1.1" xmlns="http://www.w3.org/2000/svg" p-id="29503" xmlns:xlink="http://www.w3.org/1999/xlink" width="200" height="200"><path d="M807.936059 219.702817c-9.812483 0-19.395746 0.963954-28.677133 2.777253-30.988782-45.035706-82.886779-74.560136-141.680836-74.560136-44.914956 0-85.791945 17.231453-116.412336 45.433772-28.060079-13.20679-59.388599-20.6012-92.459808-20.6012-108.684328 0-198.73118 79.768765-214.8196 183.950546-3.673669-0.295735-7.40055-0.460488-11.162224-0.460488-74.93262 0-135.683239 60.746526-135.683239 135.682215 0 74.93876 60.751642 145.986909 135.683239 146.195663l43.842531 0.119727 0-55.55427-53.388954 0 0-1.445932c-45.11757-4.773723-80.273255-42.932812-80.273255-89.315188 0-49.611931 40.21798-89.818655 89.819678-89.818655 3.03001 0 6.022157 0.150426 8.965186 0.447185l50.194192 0.013303c0.921999-8.757454 2.109034-17.83725 3.081175-31.233352 9.331529-82.167395 79.072917-146.012492 163.741271-146.012492 51.268664 0 97.067756 23.411199 127.297244 60.119239 10.051937 11.313673 20.533662 20.405749 35.926234 38.084387l43.601031-0.443092c2.854001-0.194428 5.734608-0.302899 8.638751-0.302899 71.243601 0 128.98877 62.688761 128.98877 129.003096 0 66.313312-60.068074 129.235386-100.073206 130.327254l-3.219321 0.007163 0 56.147788c69.77925-9.521864 127.361713-57.278541 151.001109-121.464399 76.142168-6.553253 135.908366-70.416769 135.908366-148.259672C956.774923 286.338471 890.140293 219.702817 807.936059 219.702817zM831.358515 471.556892c0.680499-6.503111 1.047866-13.094226 1.047866-19.773346 0-103.96177-84.276429-188.238199-188.238199-188.238199-12.412704 0-24.534789 1.211595-36.279275 3.50994-13.471826-19.585057-30.077016-36.853349-49.081858-51.071166 21.871123-16.630772 49.170886-26.499537 78.768995-26.499537 40.535205 0 76.751035 18.499329 100.654444 47.530526 7.956206 8.952906 16.239869 16.137539 28.399817 30.116925l34.485419-0.354064c2.24718-0.152473 4.520967-0.234337 6.819313-0.234337 56.33096 0 102.004185 49.562812 102.004185 101.997022C909.939221 420.655596 862.989933 470.130404 831.358515 471.556892z" fill="#e6e6e6" p-id="29504" data-spm-anchor-id="a313x.search_index.0.i52.40513a81YAcDbP" class="selected"></path><path d="M602.076528 871.360578c32.828686 13.31526 70.244854-2.518357 83.561138-35.346019 13.31526-32.828686 18.952654-158.65851-1.524726-166.967756-20.490683-8.3072-104.07945 85.911672-117.39471 118.753661C553.414225 820.642452 569.234539 858.044294 602.076528 871.360578L602.076528 871.360578 602.076528 871.360578z" fill="#19fa28" p-id="29505" data-spm-anchor-id="a313x.search_index.0.i55.40513a81YAcDbP" class=""></path><path d="M190.166107 859.134115c25.822109 10.473539 55.251372-1.981121 65.724911-27.802206 10.473539-25.822109 14.907525-124.794238-1.199315-131.329071-16.117073-6.53381-81.864496 67.574025-92.337012 93.406366C151.891386 819.241546 164.334789 848.659553 190.166107 859.134115L190.166107 859.134115 190.166107 859.134115z" fill="#19fa28" p-id="29506" data-spm-anchor-id="a313x.search_index.0.i54.40513a81YAcDbP" class=""></path><path d="M566.843072 500.04369c-14.784728-8.584516-33.751708-3.564175-42.367947 11.219529L358.693382 796.647969c-8.585539 14.814404-3.564175 33.751708 11.219529 42.336224 4.89652 2.850931 10.258645 4.214998 15.527648 4.214998 10.692526 0 21.074991-5.516644 26.840298-15.434527l165.751045-285.353027C586.709539 527.627932 581.657476 508.659929 566.843072 500.04369L566.843072 500.04369z" fill="#19fa28" p-id="29507" data-spm-anchor-id="a313x.search_index.0.i53.40513a81YAcDbP" class=""></path></svg>