<?xml version="1.0" standalone="no"?><!DOCTYPE svg PUBLIC "-//W3C//DTD SVG 1.1//EN" "http://www.w3.org/Graphics/SVG/1.1/DTD/svg11.dtd"><svg t="1703434546011" class="icon" viewBox="0 0 1024 1024" version="1.1" xmlns="http://www.w3.org/2000/svg" p-id="32406" width="64" height="64" xmlns:xlink="http://www.w3.org/1999/xlink"><path d="M788.4 278.4c-14.3 0-28.5 1.3-42.5 4-21.9-46.3-54.6-86.1-95.6-116-49.4-35.9-107.4-54.9-167.8-54.9-147.5 0-270.4 113.3-290.7 262.7h-2C85.2 374.2 0 462.8 0 571.6c0 34.3 8.7 68.2 25.2 98 16 29 39 53.4 66.5 70.8 4.8 3 10.2 4.5 15.5 4.5 9.6 0 19-4.8 24.5-13.5 8.6-13.5 4.5-31.4-9-40-40-25.2-64.7-71.1-64.7-119.8 0-76.9 59.2-139.4 131.9-139.4h28c4.6 0 8.9-1.1 12.8-3 9.3-4.4 16-13.7 16.5-24.8 6.5-131.8 109.9-235 235.3-235 97.4 0 183.5 61.6 219.3 157.1 0.7 1.9 1.6 3.7 2.6 5.4 0 0 0 0.1 0.1 0.1 0.2 0.4 0.5 0.7 0.7 1.1 0.1 0.1 0.1 0.2 0.2 0.3l0.6 0.9c0.1 0.1 0.2 0.3 0.3 0.4 0.2 0.2 0.4 0.4 0.5 0.7 0.2 0.2 0.3 0.4 0.5 0.5 0.1 0.2 0.3 0.3 0.4 0.5l0.6 0.6c0.1 0.1 0.2 0.3 0.4 0.4 0.2 0.2 0.5 0.4 0.7 0.7l0.3 0.3c0.3 0.2 0.5 0.4 0.8 0.7 0.1 0.1 0.2 0.2 0.3 0.2 0.3 0.2 0.6 0.4 0.8 0.6 0.1 0.1 0.2 0.1 0.3 0.2l0.9 0.6c0.1 0.1 0.2 0.1 0.3 0.2 0.3 0.2 0.6 0.4 0.9 0.5 0.1 0.1 0.2 0.1 0.3 0.2 0.3 0.2 0.6 0.3 0.8 0.5 0.1 0.1 0.3 0.1 0.4 0.2 0.3 0.1 0.5 0.3 0.8 0.4 0.1 0.1 0.3 0.1 0.4 0.2 0.3 0.1 0.5 0.2 0.8 0.3 0.2 0.1 0.3 0.1 0.5 0.2 0.3 0.1 0.5 0.2 0.8 0.3 0.2 0.1 0.4 0.1 0.5 0.2 0.2 0.1 0.5 0.2 0.8 0.2 0.2 0.1 0.4 0.1 0.6 0.2 0.2 0.1 0.5 0.1 0.7 0.2 0.2 0.1 0.4 0.1 0.6 0.2 0.2 0.1 0.5 0.1 0.7 0.2 0.2 0 0.4 0.1 0.6 0.1 0.3 0 0.5 0.1 0.8 0.1 0.2 0 0.4 0.1 0.6 0.1 0.3 0 0.6 0.1 0.8 0.1 0.2 0 0.4 0 0.5 0.1 0.3 0 0.6 0 0.9 0.1h3.3c0.4 0 0.9-0.1 1.3-0.1h0.1c1.4-0.1 2.8-0.4 4.2-0.8h0.1c0.4-0.1 0.7-0.2 1.1-0.3 0.1 0 0.2-0.1 0.4-0.1 16.4-5.2 33.5-7.8 50.8-7.8 97.9 0 177.6 84 177.6 187.3 0 61.4-28.6 119-76.6 154.1-12.9 9.4-15.7 27.6-6.3 40.5 5.7 7.8 14.5 11.9 23.4 11.9 5.9 0 11.9-1.8 17.1-5.6 62.8-45.9 100.4-121 100.4-200.9 0.2-135.2-105.5-245.3-235.4-245.3z" p-id="32407" data-spm-anchor-id="a313x.search_index.0.i72.40513a81YAcDbP" class="selected" fill="#e6e6e6"></path><path d="M238.5 709c-14.3-7.1-31.7-1.3-38.9 13l-74 148.6c-7.1 14.3-1.3 31.7 13 38.9 4.2 2.1 8.6 3 12.9 3 10.6 0 20.9-5.9 26-16.1l74-148.6c7.2-14.3 1.3-31.7-13-38.8zM383.8 709c-14.3-7.1-31.7-1.3-38.9 13l-74 148.6c-7.1 14.3-1.3 31.7 13 38.9 4.2 2.1 8.6 3 12.9 3 10.6 0 20.9-5.9 26-16.1l74-148.6c7.2-14.3 1.4-31.7-13-38.8zM529.2 709c-14.3-7.1-31.7-1.3-38.9 13l-74 148.6c-7.1 14.3-1.3 31.7 13 38.9 4.2 2.1 8.6 3 12.9 3 10.6 0 20.9-5.9 26-16.1l74-148.6c7.1-14.3 1.3-31.7-13-38.8zM674.5 709c-14.3-7.1-31.7-1.3-38.9 13l-74 148.6c-7.1 14.3-1.3 31.7 13 38.9 4.2 2.1 8.6 3 12.9 3 10.6 0 20.9-5.9 26-16.1l74-148.6c7.2-14.3 1.3-31.7-13-38.8zM444.8 648.7l42.5-86.5c7.1-14.4 1.1-31.7-13.2-38.8-14.4-7.1-31.7-1.1-38.8 13.2l-42.5 86.5c-7.1 14.4-1.1 31.7 13.2 38.8 4.1 2 8.5 3 12.8 3 10.7 0 21-5.9 26-16.2zM589.5 649.1l22-43c7.3-14.3 1.6-31.7-12.6-39-14.3-7.3-31.7-1.6-39 12.6l-22 43c-7.3 14.3-1.6 31.7 12.6 39 4.2 2.2 8.7 3.2 13.1 3.2 10.6 0 20.8-5.8 25.9-15.8zM819.8 709c-14.3-7.1-31.7-1.3-38.9 13l-74 148.6c-7.1 14.3-1.3 31.7 13 38.9 4.2 2.1 8.6 3 12.9 3 10.6 0 20.9-5.9 26-16.1l74-148.6c7.2-14.3 1.4-31.7-13-38.8z" p-id="32408" data-spm-anchor-id="a313x.search_index.0.i73.40513a81YAcDbP" class="" fill="#19fa28"></path></svg>