<?xml version="1.0" standalone="no"?><!DOCTYPE svg PUBLIC "-//W3C//DTD SVG 1.1//EN" "http://www.w3.org/Graphics/SVG/1.1/DTD/svg11.dtd"><svg t="1703433829843" class="icon" viewBox="0 0 1024 1024" version="1.1" xmlns="http://www.w3.org/2000/svg" p-id="30672" data-spm-anchor-id="a313x.search_index.0.i59.40513a81YAcDbP" xmlns:xlink="http://www.w3.org/1999/xlink" width="200" height="200"><path d="M184.753841 716.845435c19.250436 7.804756 41.197284-1.467421 49.00818-20.723997 7.798617-19.262716 11.112082-93.039-0.906649-97.915054-12.005428-4.862751-61.025888 50.381457-68.837808 69.638033C156.218948 687.094854 165.503405 709.040678 184.753841 716.845435L184.753841 716.845435 184.753841 716.845435z" fill="#19fa28" p-id="30673" data-spm-anchor-id="a313x.search_index.0.i60.40513a81YAcDbP" class=""></path><path d="M409.221172 722.646558c19.261693 7.810896 41.197284-1.461281 49.00818-20.718881 7.810896-19.261693 11.111059-93.039-0.89437-97.91403-12.018731-4.862751-61.025888 50.380434-68.837808 69.629847C380.685255 692.90314 389.969713 714.847941 409.221172 722.646558L409.221172 722.646558 409.221172 722.646558z" fill="#19fa28" p-id="30674" data-spm-anchor-id="a313x.search_index.0.i61.40513a81YAcDbP" class=""></path><path d="M287.456944 780.424472c19.200294 7.78429 41.082674-1.463328 48.882314-20.674878 7.797593-19.212574 11.086499-92.817965-0.896416-97.6756-11.992125-4.862751-60.887742 50.254567-68.674079 69.468165C258.972193 750.754732 268.231067 772.637112 287.456944 780.424472L287.456944 780.424472 287.456944 780.424472z" fill="#19fa28" p-id="30675" data-spm-anchor-id="a313x.search_index.0.i58.40513a81YAcDbP" class=""></path><path d="M668.585291 752.429885c22.50148 9.121751 48.151673-1.725294 57.273425-24.239054 9.133008-22.506597 12.987802-108.742656-1.045819-114.438379-14.047947-5.693676-71.332628 58.873876-80.465636 81.385589C635.225509 717.6518 646.072555 743.296877 668.585291 752.429885L668.585291 752.429885 668.585291 752.429885z" fill="#19fa28" p-id="30676" data-spm-anchor-id="a313x.search_index.0.i63.40513a81YAcDbP" class=""></path><path d="M539.022447 815.272141c19.200294 7.785314 41.095977-1.474584 48.88129-20.687158 7.79964-19.200294 11.087523-92.817965-0.893346-97.6756-11.993149-4.862751-60.888765 50.254567-68.675102 69.454862C510.537695 785.589099 519.79657 807.472502 539.022447 815.272141L539.022447 815.272141 539.022447 815.272141z" fill="#19fa28" p-id="30677" data-spm-anchor-id="a313x.search_index.0.i62.40513a81YAcDbP" class=""></path><path d="M398.562415 933.470147c29.569456 11.993149 63.269999-2.26867 75.264171-31.836079 11.993149-29.569456 17.070794-142.904711-1.373277-150.388149-18.455327-7.482415-93.745081 77.380368-105.737206 106.962104C354.733187 887.787712 368.982726 921.475975 398.562415 933.470147L398.562415 933.470147 398.562415 933.470147z" fill="#19fa28" p-id="30678" data-spm-anchor-id="a313x.search_index.0.i57.40513a81YAcDbP" class=""></path><path d="M808.288077 157.902286c-9.788947 0-19.35072 0.958838-28.611641 2.765997-30.915104-44.932352-82.696444-74.387197-141.354402-74.387197-44.812625 0-85.606727 17.190521-116.145254 45.335535-27.993564-13.184277-59.249429-20.554128-92.245937-20.554128-108.434641 0-198.286042 79.585593-214.32432 183.52792-3.665483-0.301875-7.382131-0.466628-11.136641-0.466628-74.758658 0-135.369084 60.60531-135.369084 135.370107 0 74.765821 60.610426 145.657404 135.369084 145.857972l43.741223 0.12689 0-55.43352-53.279461 0 0-1.442862c-44.99989-4.761444-80.074733-42.834574-80.074733-89.109504 0-49.492204 40.113603-89.611947 89.611947-89.611947 3.01159 0 6.008854 0.151449 8.944719 0.446162l50.078559 0.013303c0.920976-8.736988 2.103918-17.790178 3.075035-31.162744 9.31004-81.978083 78.891791-145.6748 163.363671-145.6748 51.14996 0 96.844675 23.356964 127.004579 59.98007 10.028401 11.294231 20.48659 20.364817 35.842323 38.003546l43.503816-0.448208c2.846838-0.189312 5.719258-0.295735 8.617261-0.295735 71.079872 0 128.693034 62.538335 128.693034 128.699174s-59.932997 128.938628-99.843986 130.028449l-3.213181 0.007163-0.002047 0 0 56.019875c69.608358-9.499351 127.069047-57.147558 150.640905-121.18606 75.968206-6.531763 135.610584-70.25611 135.610584-147.918911C956.787202 224.384443 890.304022 157.902286 808.288077 157.902286zM831.66039 409.179216c0.681522-6.488785 1.045819-13.065574 1.045819-19.736507 0-103.722316-84.083024-187.804317-187.80534-187.804317-12.385075 0-24.479531 1.214664-36.196387 3.502777-13.443174-19.532869-30.010501-36.762275-48.970318-50.954509 21.820981-16.591887 49.059346-26.438139 78.587869-26.438139 40.443108 0 76.574003 18.46249 100.410897 47.421033 7.937786 8.93244 16.214287 16.1007 28.347628 30.048363l34.394345-0.353041c2.254344-0.145309 4.52199-0.233314 6.815219-0.233314 56.203046 0 101.758592 49.455365 101.758592 101.764732C910.048715 358.394576 863.219153 407.754774 831.66039 409.179216z" fill="#e6e6e6" p-id="30679" data-spm-anchor-id="a313x.search_index.0.i65.40513a81YAcDbP" class="selected"></path></svg>