<?xml version="1.0" standalone="no"?><!DOCTYPE svg PUBLIC "-//W3C//DTD SVG 1.1//EN" "http://www.w3.org/Graphics/SVG/1.1/DTD/svg11.dtd"><svg t="1703489033602" class="icon" viewBox="0 0 1024 1024" version="1.1" xmlns="http://www.w3.org/2000/svg" p-id="35181" xmlns:xlink="http://www.w3.org/1999/xlink" width="128" height="128"><path d="M448 186.4c-39.2 11.2-110.4 56-117.6 74.4-2.4 6.4-16 11.2-33.6 11.2-31.2 0-90.4 24-116 46.4C158.4 338.4 128 408 128 440s30.4 101.6 52.8 121.6c8.8 8 33.6 21.6 54.4 31.2 31.2 13.6 48 16 81.6 12 34.4-4 47.2-1.6 71.2 12 27.2 16.8 29.6 16.8 44 3.2 20-18.4 20-25.6 0-32-8.8-3.2-27.2-14.4-40-24.8-21.6-19.2-26.4-20-52.8-11.2-104.8 34.4-196.8-66.4-150.4-164.8 20-42.4 55.2-63.2 108-64 42.4-0.8 46.4-2.4 78.4-37.6 76-82.4 197.6-82.4 273.6 0 32 35.2 36 36.8 78.4 37.6 52.8 0.8 88 21.6 108 64 46.4 98.4-45.6 199.2-150.4 164.8-27.2-8.8-31.2-8-55.2 12-23.2 20-52.8 76-39.2 76 3.2 0 21.6-8.8 40-20 29.6-16.8 41.6-19.2 76.8-15.2 44.8 5.6 101.6-12.8 136-43.2C865.6 541.6 896 472 896 440s-30.4-101.6-52.8-121.6c-24-20.8-84.8-46.4-112-46.4-17.6 0-33.6-8.8-53.6-27.2-60-56-153.6-80-229.6-58.4z" p-id="35182" data-spm-anchor-id="a313x.search_index.0.i85.40513a81YAcDbP" class="" fill="#dbdbdb"></path><path d="M524.8 502.4c-2.4 4-20 71.2-40 150.4-28 112-33.6 145.6-26.4 152.8 5.6 5.6 13.6 7.2 18.4 4 10.4-6.4 81.6-289.6 76.8-304-3.2-11.2-22.4-12.8-28.8-3.2zM725.6 679.2c-12 21.6-21.6 46.4-21.6 55.2 0 41.6 61.6 57.6 84 22.4 12-18.4 12-22.4-4-60-26.4-60.8-33.6-63.2-58.4-17.6zM228.8 697.6c-20 36.8-15.2 65.6 12 68.8 40.8 4.8 49.6-37.6 16.8-78.4l-14.4-17.6-14.4 27.2zM596.8 754.4c-11.2 19.2-20.8 44-20.8 56 0 21.6 25.6 45.6 48.8 45.6 17.6 0 39.2-25.6 39.2-47.2 0-19.2-27.2-76.8-39.2-84.8-4.8-2.4-16.8 11.2-28 30.4zM320 760c-19.2 38.4-11.2 64 20 64 29.6 0 40-25.6 23.2-60-18.4-40-24.8-40.8-43.2-4z" p-id="35183" data-spm-anchor-id="a313x.search_index.0.i86.40513a81YAcDbP" class="selected" fill="#19fa28"></path></svg>