<?xml version="1.0" standalone="no"?><!DOCTYPE svg PUBLIC "-//W3C//DTD SVG 1.1//EN" "http://www.w3.org/Graphics/SVG/1.1/DTD/svg11.dtd"><svg t="1703434816935" class="icon" viewBox="0 0 1024 1024" version="1.1" xmlns="http://www.w3.org/2000/svg" p-id="33879" width="128" height="128" xmlns:xlink="http://www.w3.org/1999/xlink"><path d="M535.585161 770.850419c-9.247618 0-16.822131 7.574512-16.822131 16.810874l0 7.645121c0 9.256828 7.574512 16.822131 16.822131 16.822131l42.611493 0-21.300119 36.908608c-4.628414 8.002254-1.861394 18.343787 6.151094 22.972201l6.618744 3.822049c8.012488 4.618181 18.343787 1.851161 22.973224-6.161327l21.300119-36.898375 21.302165 36.888142c4.628414 8.021697 14.969946 10.789741 22.982434 6.17156l6.609535-3.822049c8.012488-4.637624 10.789741-14.969946 6.161327-22.972201l-21.310352-36.908608 42.611493 0c9.247618 0 16.822131-7.564279 16.822131-16.822131l0-7.645121c0-9.236362-7.574512-16.810874-16.822131-16.810874l-42.602284 0 21.301142-36.898375c4.628414-8.003278 1.851161-18.34481-6.151094-22.973224l-6.618744-3.822049c-8.012488-4.618181-18.355043-1.851161-22.983457 6.161327l-21.301142 36.898375-21.301142-36.908608c-4.628414-8.002254-14.960737-10.769274-22.972201-6.151094l-6.619768 3.822049c-8.012488 4.628414-10.779507 14.969946-6.161327 22.973224l21.301142 36.898375L535.585161 770.850419 535.585161 770.850419z" fill="#19fa28" p-id="33880" data-spm-anchor-id="a313x.search_index.0.i79.40513a81YAcDbP" class="selected"></path><path d="M131.180691 787.869025c-7.565303 0-13.761422 6.196119-13.761422 13.752212l0 6.254447c0 7.572466 6.196119 13.761422 13.761422 13.761422l34.858926 0-17.424858 30.193673c-3.786233 6.54609-1.52268 15.006785 5.031597 18.793018l5.414313 3.127224c6.5553 3.778046 15.006785 1.514493 18.794042-5.039783l17.424858-30.185486 17.426905 30.1773c3.786233 6.562463 12.246929 8.827039 18.801205 5.048993l5.40715-3.127224c6.5553-3.794419 8.827039-12.246929 5.039783-18.793018l-17.433044-30.193673 34.859949 0c7.565303 0 13.761422-6.187933 13.761422-13.761422l0-6.254447c0-7.556093-6.196119-13.752212-13.761422-13.752212l-34.851763 0 17.425881-30.185486c3.786233-6.547113 1.514493-15.007809-5.031597-18.794042l-5.414313-3.1262c-6.5553-3.778046-15.015995-1.514493-18.802228 5.040806l-17.425881 30.185486-17.425881-30.193673c-3.786233-6.547113-12.238742-8.810666-18.793018-5.031597l-5.415336 3.1262c-6.5553 3.786233-8.818853 12.246929-5.039783 18.794042l17.425881 30.185486L131.180691 787.871071 131.180691 787.869025z" fill="#19fa28" p-id="33881" data-spm-anchor-id="a313x.search_index.0.i80.40513a81YAcDbP" class="selected"></path><path d="M808.891827 217.695091c-9.809413 0-19.390629 0.963954-28.66997 2.77623-30.980595-45.023426-82.864266-74.53967-141.642974-74.53967-44.902676 0-85.768409 17.226337-116.380614 45.421492-28.052916-13.20372-59.372226-20.596084-92.434226-20.596084-108.655675 0-198.677968 79.747275-214.761272 183.901427-3.672646-0.295735-7.398504-0.460488-11.159154-0.460488-74.912154 0-135.6464 60.730153-135.6464 135.6464 0 74.918293 60.735269 145.947 135.6464 146.156778l43.830251 0.119727 0-55.539944-53.374628 0 0-1.445932c-45.105291-4.7727-80.251765-42.921555-80.251765-89.291652 0-49.598628 40.207747-89.794096 89.795119-89.794096 3.03001 0 6.021134 0.150426 8.962116 0.447185l50.180889 0.013303c0.921999-8.755408 2.109034-17.832134 3.081175-31.225165 9.329483-82.144882 79.051427-145.973606 163.697269-145.973606 51.254338 0 97.04115 23.404036 127.262452 60.102866 10.048867 11.310603 20.527522 20.400632 35.917024 38.074154l43.588751-0.443092c2.854001-0.194428 5.733585-0.302899 8.636704-0.302899 71.224158 0 128.953977 62.672388 128.953977 128.968303 0 66.294892-60.051701 129.200594-100.0466 130.292462l-3.218298 0.007163 0 56.132438c69.759807-9.518794 127.32692-57.263192 150.960177-121.431653 76.121701-6.551206 135.871527-70.39835 135.871527-148.219763C957.690782 284.312324 891.073548 217.695091 808.891827 217.695091zM832.308143 469.481627c0.680499-6.501064 1.046842-13.090133 1.046842-19.768229 0-103.934141-84.253916-188.187033-188.187033-188.187033-12.409634 0-24.527626 1.211595-36.269042 3.508917-13.467733-19.579941-30.068829-36.84414-49.068556-51.056839 21.864984-16.626679 49.157583-26.492374 78.747505-26.492374 40.523949 0 76.730569 18.494213 100.626815 47.517223 7.954159 8.950859 16.235776 16.133446 28.39163 30.108738l34.476209-0.354064c2.24718-0.152473 4.51892-0.234337 6.817266-0.234337 56.31561 0 101.977579 49.549509 101.977579 101.970416C910.86736 418.593634 863.931375 468.055139 832.308143 469.481627z" fill="#e6e6e6" p-id="33882" data-spm-anchor-id="a313x.search_index.0.i77.40513a81YAcDbP" class=""></path><path d="M550.093597 519.306406c-14.780635-8.582469-33.742499-3.563152-42.355667 11.216459L341.999165 815.830867c-8.583492 14.810311-3.563152 33.742499 11.216459 42.324968 4.895497 2.850931 10.255575 4.213975 15.522532 4.213975 10.689457 0 21.069875-5.51562 26.833135-15.430434l165.706019-285.276279C569.953923 546.882462 564.902884 527.919575 550.093597 519.306406L550.093597 519.306406z" fill="#19fa28" p-id="33883" data-spm-anchor-id="a313x.search_index.0.i78.40513a81YAcDbP" class="selected"></path></svg>