<?xml version="1.0" standalone="no"?><!DOCTYPE svg PUBLIC "-//W3C//DTD SVG 1.1//EN" "http://www.w3.org/Graphics/SVG/1.1/DTD/svg11.dtd"><svg t="1703489269821" class="icon" viewBox="0 0 1024 1024" version="1.1" xmlns="http://www.w3.org/2000/svg" p-id="36799" data-spm-anchor-id="a313x.search_index.0.i93.40513a81YAcDbP" xmlns:xlink="http://www.w3.org/1999/xlink" width="128" height="128"><path d="M768.964466 542.187533l3.740184-0.005117c46.5195-1.276063 116.389824-74.452689 116.389824-151.568021 0-77.122495-67.167772-150.023852-150.017712-150.023852-3.375887 0-6.715959 0.12382-10.04068 0.344854l-50.709939 0.523933c-17.896602-20.565385-30.088272-31.133068-41.782615-44.293809-35.153638-42.695405-88.414679-69.920466-148.040684-69.920466-98.458429 0-179.556469 74.245981-190.422957 169.808454-1.12666 15.581883-2.50096 26.136264-3.589758 36.323277l-58.364269-0.019443c-3.427052-0.344854-6.915503-0.518816-10.429537-0.518816-57.688887 0-104.446817 46.76407-104.446817 104.46012 0 53.936423 40.868803 98.31926 93.341898 103.864556l0 1.689479 62.09115 0 0 64.609507-50.986231-0.143263c-87.138616-0.23843-157.795862-82.868359-157.795862-170.020278s70.644967-157.795862 157.795862-157.795862c4.376681 0 8.703219 0.187265 12.980639 0.538259 18.709107-121.159454 123.429147-213.921137 249.824859-213.921137 86.488817 0 162.810063 43.426045 208.394261 109.662609 13.656021-2.663666 27.750017-4.084015 42.179658-4.084015 120.905674 0 218.911802 98.014314 218.911802 218.917942 0 110.763686-82.260515 202.297402-189.022051 216.872353l0-65.297169L768.964466 542.191626 768.964466 542.187533z" fill="#e6e6e6" p-id="36800" data-spm-anchor-id="a313x.search_index.0.i94.40513a81YAcDbP" class="selected"></path><path d="M346.861916 595.773985c-8.290827 0-15.068184 6.77838-15.068184 15.063067l0 6.840802c0 8.284687 6.779404 15.055904 15.068184 15.055904l38.153972 0-19.082614 33.051767c-4.139274 7.17747-1.662873 16.426111 5.514597 20.570501l5.928013 3.420913c7.17747 4.145413 16.432251 1.662873 20.571525-5.51562l19.070334-33.039487 19.083637 33.039487c4.139274 7.173376 13.393032 9.661034 20.571525 5.51562l5.928013-3.420913c7.17747-4.151553 9.654894-13.399171 5.514597-20.577664l-19.083637-33.045627 38.153972 0c8.29185 0 15.069207-6.77224 15.069207-15.056927l0-6.840802c0-8.283664-6.779404-15.063067-15.069207-15.063067l-38.153972 0 19.083637-33.039487c4.139274-7.172353 1.661849-16.433274-5.514597-20.571525l-5.928013-3.419889c-7.17747-4.139274-16.432251-1.662873-20.571525 5.509481l-19.083637 33.04665-19.070334-33.045627c-4.139274-7.172353-13.394055-9.654894-20.573571-5.509481l-5.92699 3.414773c-7.178493 4.14439-9.654894 13.405311-5.514597 20.577664l19.071358 33.039487L346.861916 595.773985 346.861916 595.773985 346.861916 595.773985z" fill="#19fa28" p-id="36801" data-spm-anchor-id="a313x.search_index.0.i91.40513a81YAcDbP" class=""></path><path d="M592.735789 691.817412l38.141692 0-19.070334-33.040511c-4.14132-7.172353-1.663896-16.438391 5.513574-20.577664l5.928013-3.414773c7.16519-4.14439 16.432251-1.669012 20.571525 5.509481l19.083637 33.047674 19.070334-33.047674c4.139274-7.172353 13.393032-9.647731 20.571525-5.509481l5.92699 3.420913c7.17747 4.139274 9.654894 13.399171 5.514597 20.570501l-19.083637 33.040511 38.156018 0c8.278547 0 15.055904 6.771217 15.055904 15.063067l0 6.839779c0 8.272407-6.777357 15.050788-15.055904 15.050788l-38.156018 0 19.083637 33.051767c4.139274 7.178493 1.662873 16.419971-5.514597 20.571525l-5.92699 3.426029c-7.178493 4.139274-16.433274 1.651616-20.571525-5.514597l-19.070334-33.039487-19.083637 33.039487c-4.14132 7.179516-13.406335 9.654894-20.571525 5.514597l-5.928013-3.426029c-7.17747-4.139274-9.654894-13.393032-5.513574-20.560268l19.082614-33.06507-38.153972 0c-8.290827 0-15.068184-6.777357-15.068184-15.050788l0-6.839779C577.667605 698.588629 584.444962 691.817412 592.735789 691.817412L592.735789 691.817412 592.735789 691.817412z" fill="#19fa28" p-id="36802" data-spm-anchor-id="a313x.search_index.0.i90.40513a81YAcDbP" class=""></path><path d="M407.16535 823.176159c-11.617595 0-21.134343 9.516748-21.134343 21.12104l0 9.604752c0 11.629875 9.516748 21.135366 21.134343 21.135366l53.53631 0-26.761504 46.37112c-5.815449 10.053983-2.339278 23.047926 7.728008 28.862351l8.315386 4.802376c10.067286 5.802146 23.047926 2.325975 28.864398-7.740288l26.761504-46.358841 26.76355 46.345538c5.815449 10.078543 18.808368 13.555737 28.874631 7.753591l8.30413-4.802376c10.067286-5.826705 13.555737-18.808368 7.740288-28.862351l-26.773783-46.37112 53.537334 0c11.617595 0 21.134343-9.503445 21.134343-21.135366l0-9.604752c0-11.604292-9.516748-21.12104-21.134343-21.12104l-53.525054 0 26.762527-46.357817c5.815449-10.055007 2.325975-23.048949-7.728008-28.863375l-8.315386-4.801353c-10.067286-5.802146-23.061228-2.325975-28.876678 7.741311l-26.762527 46.357817-26.762527-46.372144c-5.815449-10.053983-18.796088-13.531178-28.862351-7.728008l-8.316409 4.801353c-10.067286 5.815449-13.543458 18.808368-7.740288 28.863375l26.762527 46.357817L407.16535 823.175135 407.16535 823.176159z" fill="#19fa28" p-id="36803" data-spm-anchor-id="a313x.search_index.0.i89.40513a81YAcDbP" class=""></path></svg>