<?xml version="1.0" standalone="no"?><!DOCTYPE svg PUBLIC "-//W3C//DTD SVG 1.1//EN" "http://www.w3.org/Graphics/SVG/1.1/DTD/svg11.dtd"><svg t="1703489449504" class="icon" viewBox="0 0 1024 1024" version="1.1" xmlns="http://www.w3.org/2000/svg" p-id="38075" xmlns:xlink="http://www.w3.org/1999/xlink" width="128" height="128"><path d="M770.46975 572.324924l3.764744-0.013303c46.795792-1.278109 117.076462-74.886571 117.076462-152.452157 0-77.57889-67.562768-150.906965-150.894685-150.906965-3.403516 0-6.769171 0.124843-10.109242 0.342808l-51.008744 0.529049c-17.999956-20.687158-30.266327-31.320333-42.022069-44.558845-35.363416-42.944068-88.941682-70.330812-148.912541-70.330812-99.038644 0-180.6248 74.687026-191.544501 170.809247-1.134847 15.669888-2.518357 26.290783-3.603061 36.537148l-58.725496-0.01842c-3.440355-0.343831-6.943133-0.517793-10.483772-0.517793-58.025555 0-105.071034 47.033199-105.071034 105.072057 0 54.255695 41.123606 98.894358 93.90267 104.4724l0 1.695618 62.451354 0 0 64.989153-51.284013-0.14224c-87.644129-0.237407-158.722978-83.35136-158.722978-171.014932 0-87.669712 71.065546-158.730141 158.722978-158.730141 4.40124 0 8.752338 0.193405 13.063527 0.541329C255.879762 186.753381 361.227088 93.448322 488.36265 93.448322c86.98512 0 163.759691 43.678802 209.606879 110.308315 13.737886-2.686179 27.922956-4.107551 42.445718-4.107551 121.612779 0 220.189911 98.582249 220.189911 220.209354 0 111.410416-82.744539 203.480344-190.135408 218.146369L770.46975 572.324924 770.46975 572.324924 770.46975 572.324924z" fill="#e6e6e6" p-id="38076" data-spm-anchor-id="a313x.search_index.0.i99.40513a81YAcDbP" class="selected"></path><path d="M630.481462 717.503421c26.015513 10.558473 55.657624-1.987261 66.216097-28.016077 10.559497-26.015513 15.009855-125.721353-1.220804-132.302235-16.229636-6.580882-82.459037 68.068282-93.006254 94.095052C591.900771 677.301813 604.453668 706.95211 630.481462 717.503421L630.481462 717.503421 630.481462 717.503421z" fill="#19fa28" p-id="38077" data-spm-anchor-id="a313x.search_index.0.i98.40513a81YAcDbP" class=""></path><path d="M345.183693 763.463172c26.027793 10.547217 55.670927-1.9934 66.228377-28.022217 10.546194-26.021653 15.009855-125.72033-1.220804-132.301212-16.229636-6.580882-82.459037 68.067258-93.018533 94.095052C306.615283 723.251332 319.154877 752.905722 345.183693 763.463172L345.183693 763.463172 345.183693 763.463172z" fill="#19fa28" p-id="38078" data-spm-anchor-id="a313x.search_index.0.i97.40513a81YAcDbP" class=""></path><path d="M462.123033 925.166017c-29.268604-11.867282-43.378973-45.200458-31.500435-74.469062 11.867282-29.267581 86.349647-113.224738 104.610546-105.83135 18.248619 7.404644 13.239536 119.543653 1.358951 148.801001C524.723789 922.93521 491.379357 937.034323 462.123033 925.166017L462.123033 925.166017z" fill="#19fa28" p-id="38079" data-spm-anchor-id="a313x.search_index.0.i96.40513a81YAcDbP" class=""></path></svg>