<?xml version="1.0" standalone="no"?><!DOCTYPE svg PUBLIC "-//W3C//DTD SVG 1.1//EN" "http://www.w3.org/Graphics/SVG/1.1/DTD/svg11.dtd"><svg t="1703490323525" class="icon" viewBox="0 0 1024 1024" version="1.1" xmlns="http://www.w3.org/2000/svg" p-id="48112" data-spm-anchor-id="a313x.search_index.0.i125.40513a81YAcDbP" xmlns:xlink="http://www.w3.org/1999/xlink" width="128" height="128"><path d="M942.4896 930.816H65.0752c-14.7968 0-26.88-12.0832-26.88-26.88s12.0832-26.88 26.88-26.88h877.4144c14.7968 0 26.88 12.0832 26.88 26.88 0.0512 14.7456-12.0832 26.88-26.88 26.88z" fill="#FFB612" p-id="48113" data-spm-anchor-id="a313x.search_index.0.i123.40513a81YAcDbP" class=""></path><path d="M241.5104 749.4656m-67.8912 0a67.8912 67.8912 0 1 0 135.7824 0 67.8912 67.8912 0 1 0-135.7824 0Z" fill="#FFB612" p-id="48114"></path><path d="M400.2304 582.656m-67.8912 0a67.8912 67.8912 0 1 0 135.7824 0 67.8912 67.8912 0 1 0-135.7824 0Z" fill="#FFB612" p-id="48115"></path><path d="M732.8768 281.856m-67.8912 0a67.8912 67.8912 0 1 0 135.7824 0 67.8912 67.8912 0 1 0-135.7824 0Z" fill="#FFB612" p-id="48116"></path><path d="M800.7168 749.4656m-67.8912 0a67.8912 67.8912 0 1 0 135.7824 0 67.8912 67.8912 0 1 0-135.7824 0Z" fill="#FFB612" p-id="48117" data-spm-anchor-id="a313x.search_index.0.i126.40513a81YAcDbP" class=""></path><path d="M192.512 582.656m-37.12 0a37.12 37.12 0 1 0 74.24 0 37.12 37.12 0 1 0-74.24 0Z" fill="#FFB612" p-id="48118"></path><path d="M578.6112 560.7424m-37.12 0a37.12 37.12 0 1 0 74.24 0 37.12 37.12 0 1 0-74.24 0Z" fill="#FFB612" p-id="48119"></path><path d="M309.3504 237.6704m-37.12 0a37.12 37.12 0 1 0 74.24 0 37.12 37.12 0 1 0-74.24 0Z" fill="#FFB612" p-id="48120"></path><path d="M210.7392 327.424m-37.12 0a37.12 37.12 0 1 0 74.24 0 37.12 37.12 0 1 0-74.24 0Z" fill="#FFB612" p-id="48121"></path><path d="M413.3376 364.544m-37.12 0a37.12 37.12 0 1 0 74.24 0 37.12 37.12 0 1 0-74.24 0Z" fill="#FFB612" p-id="48122"></path><path d="M400.2304 779.6736m-37.12 0a37.12 37.12 0 1 0 74.24 0 37.12 37.12 0 1 0-74.24 0Z" fill="#FFB612" p-id="48123"></path><path d="M800.7168 582.656m-37.12 0a37.12 37.12 0 1 0 74.24 0 37.12 37.12 0 1 0-74.24 0Z" fill="#FFB612" p-id="48124"></path><path d="M590.4896 373.4528m-37.12 0a37.12 37.12 0 1 0 74.24 0 37.12 37.12 0 1 0-74.24 0Z" fill="#FFB612" p-id="48125"></path><path d="M285.3376 438.784m-55.7056 0a55.7056 55.7056 0 1 0 111.4112 0 55.7056 55.7056 0 1 0-111.4112 0Z" fill="#FFB612" p-id="48126"></path><path d="M497.664 258.5088m-55.7056 0a55.7056 55.7056 0 1 0 111.4112 0 55.7056 55.7056 0 1 0-111.4112 0Z" fill="#FFB612" p-id="48127"></path><path d="M699.8528 467.968m-55.7056 0a55.7056 55.7056 0 1 0 111.4112 0 55.7056 55.7056 0 1 0-111.4112 0Z" fill="#FFB612" p-id="48128"></path><path d="M578.6112 740.8128m-55.7056 0a55.7056 55.7056 0 1 0 111.4112 0 55.7056 55.7056 0 1 0-111.4112 0Z" fill="#FFB612" p-id="48129" data-spm-anchor-id="a313x.search_index.0.i124.40513a81YAcDbP" class=""></path></svg>