<?xml version="1.0" standalone="no"?><!DOCTYPE svg PUBLIC "-//W3C//DTD SVG 1.1//EN" "http://www.w3.org/Graphics/SVG/1.1/DTD/svg11.dtd"><svg t="1703490806270" class="icon" viewBox="0 0 1024 1024" version="1.1" xmlns="http://www.w3.org/2000/svg" p-id="53355" data-spm-anchor-id="a313x.search_index.0.i147.40513a81YAcDbP" width="128" height="128" xmlns:xlink="http://www.w3.org/1999/xlink"><path d="M727.3 573H303.9c-46.2 0-92.3-19.3-126.5-52.9-35.2-34.6-54.6-80.2-54.6-128.2 0-99.9 81.3-181.1 181.1-181.1 4 0 8.1 0.1 12.2 0.4 17.4-35.7 43.8-66.2 76.9-88.6 37.8-25.7 82-39.2 127.9-39.2 87.5 0 166.5 49.6 204.7 127.5h1.7c99.9 0 181.1 81.3 181.1 181.1 0 99.7-81.3 181-181.1 181zM303.9 246.7c-80 0-145.1 65.1-145.1 145.1 0 78.7 66.5 145.1 145.1 145.1h423.4c80 0 145.1-65.1 145.1-145.1s-65.1-145.1-145.1-145.1c-3.7 0-7.4 0.3-11.6 0.6l-12.9 1-5.1-11.9c-30.1-71.2-99.5-117.2-176.8-117.2-77.7 0-147.2 46.3-177.2 118.1l-5.4 12.9-13.8-2c-6.8-1-13.8-1.5-20.6-1.5z" fill="#dbdbdb" p-id="53356" data-spm-anchor-id="a313x.search_index.0.i151.40513a81YAcDbP" class=""></path><path d="M140.8 409.9c-9.9 0-18-8.1-18-18 0-99.2 80.7-179.9 179.9-179.9 56 0 107.8 25.4 142.1 69.7 6.1 7.9 4.7 19.2-3.2 25.3-7.9 6.1-19.2 4.7-25.3-3.2-27.5-35.4-68.9-55.7-113.7-55.7-79.3 0-143.9 64.5-143.9 143.9 0.1 9.8-8 17.9-17.9 17.9z" fill="#bfbfbf" p-id="53357" data-spm-anchor-id="a313x.search_index.0.i152.40513a81YAcDbP" class="selected"></path><path d="M729.7 774.2V665.5L642 726.2c-15.3 10.4-25.4 28.1-25.4 48.3 0 32 25.3 57.9 56.6 57.9 31.2 0 56.6-25.9 56.6-57.9-0.1-0.1-0.1-0.2-0.1-0.3z" fill="#19fa28" p-id="53358" data-spm-anchor-id="a313x.search_index.0.i150.40513a81YAcDbP" class=""></path><path d="M408.9 944.7L489 640.6H329.6L591.7 250l-79.9 304.1h159.5z" fill="#ffd500" p-id="53359" data-spm-anchor-id="a313x.search_index.0.i148.40513a81YAcDbP" class=""></path><path d="M243.814 748.902l83.792-83.791 83.791 83.791-83.791 83.791z" fill="#19fa28" p-id="53360" data-spm-anchor-id="a313x.search_index.0.i149.40513a81YAcDbP" class=""></path></svg>