<?xml version="1.0" standalone="no"?><!DOCTYPE svg PUBLIC "-//W3C//DTD SVG 1.1//EN" "http://www.w3.org/Graphics/SVG/1.1/DTD/svg11.dtd"><svg t="1703491145332" class="icon" viewBox="0 0 1024 1024" version="1.1" xmlns="http://www.w3.org/2000/svg" p-id="57664" data-spm-anchor-id="a313x.search_index.0.i160.40513a81YAcDbP" xmlns:xlink="http://www.w3.org/1999/xlink" width="128" height="128"><path d="M328.704 598.528h-0.512zM328.704 384h-0.512zM201.728 489.984c19.968 0 36.352-16.384 36.352-36.352s-16.384-36.352-36.352-36.352-36.352 16.384-36.352 36.352 16.384 36.352 36.352 36.352z" p-id="57665" data-spm-anchor-id="a313x.search_index.0.i161.40513a81YAcDbP" class="selected" fill="#ffd500"></path><path d="M38.912 562.688a36.352 35.84 0 1 0 72.704 0 36.352 35.84 0 1 0-72.704 0Z" p-id="57666" data-spm-anchor-id="a313x.search_index.0.i162.40513a81YAcDbP" class="selected" fill="#ffd500"></path><path d="M328.192 598.528c19.968 0 36.352-15.872 36.352-35.84s-16.384-35.84-36.352-35.84-36.352 15.872-36.352 35.84c0.512 19.968 16.384 35.84 36.352 35.84z" p-id="57667" data-spm-anchor-id="a313x.search_index.0.i159.40513a81YAcDbP" class="selected" fill="#ffd500"></path><path d="M38.912 348.16a36.352 35.84 0 1 0 72.704 0 36.352 35.84 0 1 0-72.704 0Z" p-id="57668" data-spm-anchor-id="a313x.search_index.0.i163.40513a81YAcDbP" class="selected" fill="#ffd500"></path><path d="M38.912 741.888h651.776c119.808 0 217.088-96.256 217.088-214.528 0-118.784-97.28-214.528-217.088-214.528S473.6 409.088 473.6 527.36v2.048c0 19.968 15.872 35.84 35.84 36.352 19.968 0 36.352-15.872 36.352-35.328v-2.56c0-78.848 65.024-143.36 144.896-143.36s144.896 64 144.896 143.36c0 78.848-65.024 143.36-144.896 143.36H38.912c-19.968 0-36.352 15.872-36.352 35.84s16.384 34.816 36.352 34.816zM328.192 384c19.968 0 36.352-15.872 36.352-35.84s-16.384-35.84-36.352-35.84-36.352 15.872-36.352 35.84c0.512 19.968 16.384 35.84 36.352 35.84zM979.968 849.408H38.912c-19.968 0-36.352 15.872-36.352 35.84s16.384 35.84 36.352 35.84h941.568c19.968 0 36.352-15.872 36.352-35.84s-16.896-35.84-36.864-35.84z" p-id="57669" data-spm-anchor-id="a313x.search_index.0.i158.40513a81YAcDbP" class="" fill="#ffd500"></path></svg>