<?xml version="1.0" standalone="no"?><!DOCTYPE svg PUBLIC "-//W3C//DTD SVG 1.1//EN" "http://www.w3.org/Graphics/SVG/1.1/DTD/svg11.dtd"><svg t="1703491734153" class="icon" viewBox="0 0 1024 1024" version="1.1" xmlns="http://www.w3.org/2000/svg" p-id="60998" xmlns:xlink="http://www.w3.org/1999/xlink" width="128" height="128"><path d="M625.3 312.9c-11.9 0-23.9 1.4-35.8 3.5-39.8-56.8-103.4-90.6-173.4-90.6-83.7 0-159.9 50.1-193.6 125.8-90.8 17.2-158 97.1-158 190.9 0 92.1 65.5 172.4 155.7 190.8 6.4 1.3 12.9 2.3 19.5 2.9 0.7 0.1 1.4 0.1 2 0.1 10.3 0 19.2-7.8 20.2-18.3 1.1-11.2-7.1-21.1-18.2-22.2-5.2-0.5-10.3-1.3-15.4-2.3-71.4-14.6-123.2-78-123.2-150.9 0-77.4 57.7-143 134.5-152.6 6-0.9 12.2-1.2 18.3-1.3 16-0.2 32.1 2.2 47.3 7 10.7 3.4 22.1-2.6 25.5-13.3 3.4-10.7-2.6-22.1-13.3-25.5-15.3-4.8-31.5-7.5-47.5-8.4 30.7-49.9 86-81.9 146-81.9 51.6 0 99 22.7 131.4 61.5-38.3 15-71.7 40.9-95.7 75.1-6.5 9.2-4.3 21.9 4.9 28.3 9.2 6.5 21.9 4.2 28.3-4.9 24.1-34.2 59.6-58.3 100.1-68 13.3-3.2 26.9-4.8 40.2-4.8 94.5 0 171.4 76.9 171.4 171.4 0 76.4-51.3 144.2-124.9 164.9-5 1.5-10.2 2.7-15.4 3.7-11 2.1-18.3 12.7-16.3 23.7 1.8 9.8 10.4 16.6 20 16.6 1.2 0 2.5-0.1 3.7-0.3 6.6-1.2 13.1-2.8 19.2-4.6 90.8-25.6 154.3-109.5 154.3-204 0.4-117.2-94.8-212.3-211.8-212.3z" fill="#e6e6e6" p-id="60999" data-spm-anchor-id="a313x.search_index.0.i189.40513a81YAcDbP" class="selected"></path><path d="M747.4 231.5c-11.9 0-23.9 1.4-35.8 3.5-39.8-56.8-103.4-90.6-173.4-90.6-25.4 0-50.3 4.4-73.9 13.2-7.7 2.9-15.3 6.2-22.5 9.9-10 5.1-14 17.4-8.8 27.4 5.1 10 17.4 14 27.4 8.8 5.9-3 11.9-5.7 18.2-8 19.1-7.1 39.2-10.7 59.8-10.7 60.5 0 115.4 30.9 146.8 82.8 0.2 0.4 0.5 0.6 0.8 0.9 0.3 0.5 0.7 0.9 1 1.3 1.3 1.6 2.8 3 4.4 4.1l0.9 0.6c2 1.2 4.1 1.9 6.4 2.4 0.5 0.1 1.1 0.1 1.6 0.2 0.8 0.1 1.5 0.3 2.3 0.3 1.3 0 2.7-0.3 4-0.5 0.3-0.1 0.5 0 0.8 0 13.3-3.2 26.9-4.8 40.2-4.8 94.5 0 171.4 76.9 171.4 171.4 0 53.2-24.1 102.5-66 135.2-8.9 6.9-10.4 19.7-3.5 28.6 4 5.1 10 7.8 16.1 7.8 4.4 0 8.8-1.4 12.5-4.3 51.9-40.5 81.7-101.4 81.7-167.3-0.3-117-95.5-212.2-212.4-212.2z" fill="#e6e6e6" p-id="61000" data-spm-anchor-id="a313x.search_index.0.i190.40513a81YAcDbP" class="selected"></path><path d="M410.3 879.7c-2.7 0-5.4-0.5-8-1.7-10.3-4.4-15.1-16.4-10.7-26.7l61-142.4c4.4-10.3 16.4-15.1 26.7-10.7s15.1 16.4 10.7 26.7l-61 142.4c-3.3 7.7-10.8 12.4-18.7 12.4zM308.6 879.7c-2.7 0-5.4-0.5-8-1.7-10.3-4.4-15.1-16.4-10.7-26.7l61-142.4c4.4-10.3 16.3-15.1 26.7-10.7 10.3 4.4 15.1 16.4 10.7 26.7l-61 142.4c-3.3 7.7-10.8 12.4-18.7 12.4zM512 879.7c-2.7 0-5.4-0.5-8-1.7-10.3-4.4-15.1-16.4-10.7-26.7l61-142.4c4.4-10.3 16.4-15.1 26.7-10.7s15.1 16.4 10.7 26.7l-61 142.4c-3.3 7.7-10.8 12.4-18.7 12.4zM715.4 879.7c-2.5 0-5.1-0.5-7.5-1.5-10.4-4.2-15.5-16-11.3-26.4l32.5-81.4c4.2-10.4 16-15.5 26.4-11.3 10.4 4.2 15.5 16 11.3 26.4l-32.6 81.4c-3.1 7.9-10.7 12.8-18.8 12.8zM613.7 879.7c-2.5 0-5.1-0.5-7.5-1.5-10.4-4.2-15.5-16-11.3-26.4l24.4-61c4.2-10.4 16-15.5 26.4-11.3 10.4 4.2 15.5 16 11.3 26.4l-24.4 61c-3.2 7.9-10.8 12.8-18.9 12.8zM206.9 879.7c-2.5 0-5.1-0.5-7.5-1.5-10.4-4.2-15.5-16-11.3-26.4l24.4-61c4.2-10.4 15.9-15.5 26.4-11.3 10.4 4.2 15.5 16 11.3 26.4l-24.4 61c-3.2 7.9-10.8 12.8-18.9 12.8z" fill="#19fa28" p-id="61001" data-spm-anchor-id="a313x.search_index.0.i188.40513a81YAcDbP" class=""></path></svg>