<?xml version="1.0" standalone="no"?><!DOCTYPE svg PUBLIC "-//W3C//DTD SVG 1.1//EN" "http://www.w3.org/Graphics/SVG/1.1/DTD/svg11.dtd"><svg t="1703491937081" class="icon" viewBox="0 0 1024 1024" version="1.1" xmlns="http://www.w3.org/2000/svg" p-id="63132" xmlns:xlink="http://www.w3.org/1999/xlink" width="128" height="128"><path d="M920.182516 756.337891 105.72595 756.337891c-22.502503 0-40.727587-18.246573-40.727587-40.727587 0-22.482037 18.226107-40.72861 40.727587-40.72861l814.456566 0c22.482037 0 40.708144 18.246573 40.708144 40.72861C960.89066 738.090295 942.664553 756.337891 920.182516 756.337891L920.182516 756.337891 920.182516 756.337891z" fill="#707070" p-id="63133" data-spm-anchor-id="a313x.search_index.0.i194.40513a81YAcDbP" class="selected"></path><path d="M920.182516 593.445964 105.72595 593.445964c-22.502503 0-40.727587-18.246573-40.727587-40.72861 0-22.481014 18.226107-40.727587 40.727587-40.727587l814.456566 0c22.482037 0 40.708144 18.246573 40.708144 40.727587C960.89066 575.199391 942.664553 593.445964 920.182516 593.445964L920.182516 593.445964 920.182516 593.445964z" fill="#707070" p-id="63134" data-spm-anchor-id="a313x.search_index.0.i193.40513a81YAcDbP" class="selected"></path><path d="M716.563002 349.09784c-32.582069 0-62.781882 9.815553-88.25709 26.28976-25.067932-108.275006-121.634268-189.181687-237.525742-189.181687-134.952598 0-244.347101 109.395526-244.347101 244.347101L64.99734 430.553013c0-179.935092 145.846716-325.782831 325.782831-325.782831 122.265648 0 228.646514 67.446112 284.382932 167.065993 13.521968-2.321882 27.206642-4.175089 41.399899-4.175089 106.340957 0 196.553585 68.057025 230.134401 162.890904l-89.214904 0C829.2986 381.905036 776.820388 349.09784 716.563002 349.09784L716.563002 349.09784 716.563002 349.09784z" fill="#dbdbdb" p-id="63135" data-spm-anchor-id="a313x.search_index.0.i192.40513a81YAcDbP" class=""></path><path d="M105.72595 837.772598l814.456566 0c22.482037 0 40.708144 18.246573 40.708144 40.727587 0 22.482037-18.226107 40.727587-40.708144 40.727587L105.72595 919.227772c-22.502503 0-40.727587-18.246573-40.727587-40.727587C64.99734 856.019171 83.223447 837.772598 105.72595 837.772598L105.72595 837.772598 105.72595 837.772598z" fill="#707070" p-id="63136" data-spm-anchor-id="a313x.search_index.0.i195.40513a81YAcDbP" class="selected"></path></svg>