<?xml version="1.0" standalone="no"?><!DOCTYPE svg PUBLIC "-//W3C//DTD SVG 1.1//EN" "http://www.w3.org/Graphics/SVG/1.1/DTD/svg11.dtd"><svg t="1703492861888" class="icon" viewBox="0 0 1024 1024" version="1.1" xmlns="http://www.w3.org/2000/svg" p-id="70962" xmlns:xlink="http://www.w3.org/1999/xlink" width="128" height="128"><path d="M444 205.6C404.8 217.6 360 244.8 336 272c-6.4 8-28.8 16-50.4 19.2-41.6 4.8-90.4 27.2-111.2 50.4-20 22.4-46.4 83.2-46.4 109.6 0 43.2 19.2 88.8 52.8 122.4 40 39.2 84.8 54.4 141.6 47.2 31.2-4.8 42.4-2.4 60.8 11.2 28.8 20 34.4 20 51.2 1.6 16-17.6 16.8-25.6 3.2-25.6-5.6 0-23.2-11.2-39.2-24-28-23.2-31.2-24-64-15.2C248.8 592 176 539.2 176 454.4c0-64.8 60.8-120 128-116.8 33.6 1.6 39.2-1.6 76-38.4 80.8-80 183.2-80 264 0 36.8 36.8 42.4 40 76 38.4 67.2-3.2 128 52 128 116.8 0 84.8-72.8 137.6-158.4 114.4-32.8-8.8-36.8-8-60 12-28 23.2-52 75.2-35.2 75.2 5.6 0 23.2-8.8 40-20 25.6-17.6 35.2-20 68-15.2 56 7.2 101.6-8 140.8-47.2 33.6-33.6 52.8-79.2 52.8-122.4 0-26.4-26.4-87.2-46.4-109.6-20.8-23.2-69.6-45.6-111.2-50.4C716.8 288 694.4 280 688 272c-24-28-68.8-55.2-111.2-67.2-52.8-15.2-80.8-15.2-132.8 0.8z" p-id="70963" data-spm-anchor-id="a313x.search_index.0.i219.40513a81YAcDbP" class="selected" fill="#e6e6e6"></path><path d="M524.8 518.4c-2.4 4-20 71.2-40 150.4-28 112-33.6 145.6-26.4 152.8 5.6 5.6 13.6 7.2 18.4 4 14.4-9.6 82.4-295.2 72.8-304.8-10.4-10.4-19.2-11.2-24.8-2.4zM628.8 722.4c-24.8 41.6-26.4 70.4-6.4 88 29.6 26.4 73.6 6.4 73.6-33.6 0-19.2-27.2-76.8-39.2-84.8-4.8-2.4-16.8 11.2-28 30.4zM292 735.2c-19.2 42.4-13.6 60 17.6 63.2 21.6 2.4 26.4-0.8 30.4-16.8 4.8-19.2-11.2-63.2-27.2-72.8-3.2-2.4-12.8 9.6-20.8 26.4z" p-id="70964" data-spm-anchor-id="a313x.search_index.0.i220.40513a81YAcDbP" class="" fill="#1afa29"></path></svg>