<?xml version="1.0" standalone="no"?><!DOCTYPE svg PUBLIC "-//W3C//DTD SVG 1.1//EN" "http://www.w3.org/Graphics/SVG/1.1/DTD/svg11.dtd"><svg t="1703492085258" class="icon" viewBox="0 0 1024 1024" version="1.1" xmlns="http://www.w3.org/2000/svg" p-id="65601" data-spm-anchor-id="a313x.search_index.0.i200.40513a81YAcDbP" xmlns:xlink="http://www.w3.org/1999/xlink" width="128" height="128"><path d="M696.832 738.133333h-55.296v-68.266666h55.296c57.514667 0 104.448-46.762667 104.448-104.448 0-57.514667-46.762667-104.448-104.448-104.448l-31.744 1.194666-6.485333-27.136a143.3088 143.3088 0 0 0-139.776-110.421333 143.36 143.36 0 0 0-139.776 110.250667L372.736 460.8l-26.624 0.170667c-57.173333 0.512-103.594667 47.274667-103.594667 104.277333 0 57.514667 46.762667 104.448 104.448 104.448h54.101334v68.266667h-54.101334c-95.232 0-172.714667-77.482667-172.714666-172.714667 0-85.674667 63.317333-157.525333 145.578666-170.496 30.378667-82.602667 108.885333-138.410667 198.826667-138.410667 89.6 0 167.936 55.466667 198.485333 137.557334 85.674667 10.069333 152.234667 83.114667 152.234667 171.52 0.170667 95.232-77.312 172.714667-172.544 172.714666z" fill="#e6e6e6" p-id="65602" data-spm-anchor-id="a313x.search_index.0.i199.40513a81YAcDbP" class=""></path><path d="M572.757333 711.338667l-16.725333-9.728 16.725333-9.728c8.192-4.778667 10.922667-15.189333 6.314667-23.381334a17.237333 17.237333 0 0 0-23.381333-6.314666l-16.725334 9.728v-19.285334c0-9.386667-7.68-17.066667-17.066666-17.066666s-17.066667 7.68-17.066667 17.066666v19.285334l-16.725333-9.728c-8.192-4.778667-18.602667-1.877333-23.381334 6.314666s-1.877333 18.602667 6.314667 23.381334l16.725333 9.728-16.725333 9.728c-8.192 4.778667-10.922667 15.189333-6.314667 23.381333 3.242667 5.461333 8.874667 8.533333 14.848 8.533333 2.901333 0 5.802667-0.682667 8.533334-2.218666l16.725333-9.728v19.285333c0 9.386667 7.68 17.066667 17.066667 17.066667s17.066667-7.68 17.066666-17.066667v-19.285333l16.725334 9.728c2.730667 1.536 5.632 2.218667 8.533333 2.218666 5.973333 0 11.605333-3.072 14.848-8.533333 4.608-8.362667 1.877333-18.773333-6.314667-23.381333z" fill="#1afa29" p-id="65603" data-spm-anchor-id="a313x.search_index.0.i201.40513a81YAcDbP" class="selected"></path></svg>