<?xml version="1.0" standalone="no"?><!DOCTYPE svg PUBLIC "-//W3C//DTD SVG 1.1//EN" "http://www.w3.org/Graphics/SVG/1.1/DTD/svg11.dtd"><svg t="1703492493335" class="icon" viewBox="0 0 1024 1024" version="1.1" xmlns="http://www.w3.org/2000/svg" p-id="68422" xmlns:xlink="http://www.w3.org/1999/xlink" width="128" height="128"><path d="M739.77875 266.286786c-12.018731 0-23.963785 0.974188-35.749202 2.843768C652.996245 202.491831 574.331627 163.240875 489.408469 163.240875c-128.400369 0-237.051951 88.831164-264.113283 211.380268-89.555665 6.655584-160.256914 77.519538-160.256914 164.156734 0 91.993181 77.933977 166.026314 173.745113 166.026314l0 0 33.644261 0 0-65.898873-33.725102 0.081864c-58.674331 0-106.376773-44.615127-106.376773-99.387591 0-53.879118 47.866171-97.763604 106.620319-97.763604 3.818979 0 7.719822 0.169869 11.539824 0.569982 0 0 19.423375 1.136893 28.443819-7.239891 7.070023-6.581905 8.28878-22.754237 8.28878-22.754237 10.970866-103.533005 97.925287-181.629687 202.188932-181.629687 65.012689 0 124.579343 28.92989 162.77527 80.44517 0.812505 1.147126 1.706875 2.356674 2.527566 3.502777 1.698688 2.437515 3.413749 4.876054 5.02955 7.395434 0.975211 1.462305 1.951445 2.843768 2.844791 4.379751 8.378831 13.010315 24.469298 18.698874 39.09746 13.733792 13.408381-4.551666 26.573215-6.176676 38.600133-6.581905 83.45983 0.23536 151.316288 68.336388 151.316288 151.878083 0 63.550385-23.729447 106.792235-72.489988 132.056642-14.22191 7.395434-28.687366 12.108782-41.283242 15.205307l0 68.425416c19.666922-3.331885 44.615127-9.920954 69.63701-22.435988 50.873668-25.585725 111.49842-79.880305 111.49842-193.3271C958.961728 364.618325 860.630189 266.286786 739.77875 266.286786L739.77875 266.286786z" fill="#dbdbdb" p-id="68423" data-spm-anchor-id="a313x.search_index.0.i213.40513a81YAcDbP" class="selected"></path><path d="M487.87351 852.997348c-28.579919-11.587919-42.357713-44.13622-30.759561-72.716138 11.587919-28.578896 84.317361-110.559025 102.147448-103.3396 17.819854 7.230682 12.927427 116.729561 1.326205 145.2972C549.000706 850.819752 516.441149 864.58629 487.87351 852.997348L487.87351 852.997348z" fill="#1afa29" p-id="68424" data-spm-anchor-id="a313x.search_index.0.i214.40513a81YAcDbP" class=""></path></svg>