<?xml version="1.0" standalone="no"?><!DOCTYPE svg PUBLIC "-//W3C//DTD SVG 1.1//EN" "http://www.w3.org/Graphics/SVG/1.1/DTD/svg11.dtd"><svg t="1703492362441" class="icon" viewBox="0 0 1024 1024" version="1.1" xmlns="http://www.w3.org/2000/svg" p-id="67245" data-spm-anchor-id="a313x.search_index.0.i210.40513a81YAcDbP" xmlns:xlink="http://www.w3.org/1999/xlink" width="128" height="128"><path d="M238 742.89C143 697 103.21 582.76 149.12 487.76A191 191 0 0 1 271.2 386.49C293.52 273.91 392.87 189 512 189s218.51 84.92 240.82 197.53c101.83 27.6 162 132.53 134.4 234.36a191 191 0 0 1-101.12 122h-0.05a27.28 27.28 0 0 1-23.41-49.29A136.4 136.4 0 0 0 703 434.5c0-105.46-85.49-191-191-191s-191 85.49-191 191a136.4 136.4 0 0 0-58.54 259.64A27.29 27.29 0 1 1 238 742.89z" fill="#bfbfbf" p-id="67246" data-spm-anchor-id="a313x.search_index.0.i209.40513a81YAcDbP" class=""></path><path d="M340.17 733.89v-21.63a13.64 13.64 0 1 1 27.28 0v21.61l15.28-15.28A13.65 13.65 0 0 1 402 737.87l-15.28 15.28h21.61a13.64 13.64 0 0 1 0 27.28h-21.6l15.27 15.3A13.64 13.64 0 0 1 382.75 815l-15.3-15.28v21.63a13.64 13.64 0 0 1-27.28 0v-21.61L324.89 815a13.65 13.65 0 1 1-19.31-19.29l15.28-15.28h-21.61a13.64 13.64 0 1 1 0-27.28h21.63l-15.28-15.3a13.64 13.64 0 0 1 19.26-19.29l15.3 15.28zM498.39 733.89v-21.63a13.64 13.64 0 1 1 27.28 0v21.61l15.28-15.28a13.65 13.65 0 0 1 19.31 19.29L545 753.15h21.61a13.64 13.64 0 1 1 0 27.28H545l15.28 15.3A13.64 13.64 0 0 1 541 815l-15.3-15.28v21.63a13.64 13.64 0 1 1-27.28 0v-21.61L483.11 815a13.65 13.65 0 1 1-19.31-19.29l15.28-15.28h-21.61a13.64 13.64 0 0 1 0-27.28h21.63l-15.28-15.3a13.64 13.64 0 0 1 19.26-19.29l15.3 15.28zM652.84 733.89v-21.63a13.64 13.64 0 1 1 27.28 0v21.61l15.3-15.28a13.64 13.64 0 0 1 19.29 19.29l-15.28 15.28H721a13.64 13.64 0 1 1 0 27.28h-21.59l15.3 15.3A13.64 13.64 0 0 1 695.43 815l-15.28-15.28v21.63a13.64 13.64 0 0 1-27.28 0v-21.61L637.57 815a13.64 13.64 0 0 1-19.62-19l0.33-0.33 15.28-15.28h-21.64a13.64 13.64 0 1 1 0-27.28h21.63l-15.28-15.3a13.64 13.64 0 1 1 19-19.62l0.33 0.33 15.28 15.28z" fill="#1afa29" p-id="67247" data-spm-anchor-id="a313x.search_index.0.i211.40513a81YAcDbP" class="selected"></path></svg>