<?xml version="1.0" standalone="no"?><!DOCTYPE svg PUBLIC "-//W3C//DTD SVG 1.1//EN" "http://www.w3.org/Graphics/SVG/1.1/DTD/svg11.dtd"><svg t="1703493070125" class="icon" viewBox="0 0 1024 1024" version="1.1" xmlns="http://www.w3.org/2000/svg" p-id="74949" xmlns:xlink="http://www.w3.org/1999/xlink" width="128" height="128"><path d="M935.168 542.72c-44.3392 78.336-139.84768 48.56832-61.44 133.12 60.4672 65.19808-59.392 235.52-389.12 235.52h-81.92s47.104-8.192 174.08-51.2 307.2-188.416 71.68-153.6-307.2 51.2-327.68 20.48 26.624-16.384 92.16-20.48 317.44-51.2 337.92-133.12 10.24-94.208-71.68-71.68-110.592 69.632-266.24 81.92-522.24 22.528-215.04-20.48 489.472-124.928 512-194.56 6.144-131.072-163.84-143.36c0 0 200.704-145.408 368.64 10.24 49.152 77.824-12.288 147.456-40.96 174.08s109.34272 48.57856 61.44 133.12z" fill="#FFCC00" p-id="74950"></path><path d="M464.128 829.44a30.72 30.72 0 1 1-30.72-30.72 30.72 30.72 0 0 1 30.72 30.72z m40.96-189.44a25.6 25.6 0 1 1-25.6-25.6 25.6 25.6 0 0 1 25.6 25.6z m-25.6-271.36a35.84 35.84 0 1 1 35.84-35.84A35.84 35.84 0 0 1 479.5392 368.64z m0-184.32a35.84 35.84 0 1 1 35.84-35.84A35.84 35.84 0 0 1 479.5392 184.32z m-163.84 286.72a35.84 35.84 0 1 1 35.84-35.84 35.84 35.84 0 0 1-35.84 35.84z m-10.24-286.72a35.84 35.84 0 1 1 35.84-35.84A35.84 35.84 0 0 1 305.4592 184.32z m-122.88 184.32a35.84 35.84 0 1 1 35.84-35.84 35.84 35.84 0 0 1-35.84 35.84z m56.32 296.96a30.72 30.72 0 1 1-30.72 30.72 30.72 30.72 0 0 1 30.72-30.72z" fill="#CCDCF5" p-id="74951"></path></svg>