<?xml version="1.0" standalone="no"?><!DOCTYPE svg PUBLIC "-//W3C//DTD SVG 1.1//EN" "http://www.w3.org/Graphics/SVG/1.1/DTD/svg11.dtd"><svg t="1703430091059" class="icon" viewBox="0 0 1024 1024" version="1.1" xmlns="http://www.w3.org/2000/svg" p-id="11649" xmlns:xlink="http://www.w3.org/1999/xlink" width="200" height="200"><path d="M906.684275 538.64513c-21.839915 26.321134-54.017354 47.099124-91.992042 47.099124h-47.602455c0.032508-0.563471 0.05418-1.137778 0.05418-1.712085 2.280974-86.923513-116.616804-177.812995-218.951789-132.333308-9.546497-53.659767-57.159788-94.281685-97.387818-112.835589 1.504034-79.386006 66.207831-143.27873 145.824644-143.27873 72.75818 0 129.500783 44.693537 145.440508 115.725003 18.502434-8.99928 37.882582-12.812461 59.830857-12.812461 77.477249 0 140.288 69.11404 140.288 146.722946a140.133046 140.133046 0 0 1-35.504085 93.4251z m-368.932029-74.497354c20.517384-9.973435 42.021384-14.198925 66.36441-14.198925 85.945566 0 155.615492 76.592491 155.615492 162.593862a155.204267 155.204267 0 0 1-39.388783 103.537778c-24.223831 29.170455-59.917545 52.191492-102.036995 52.191492H197.233778c-16.579048-1.029418-33.408406-7.650201-48.851302-17.776423A132.597706 132.597706 0 0 1 85.170794 608.635259a53.792508 53.792508 0 0 1 3.029739-11.757037c16.643522-54.05528 66.947928-93.338954 126.424449-93.338954h0.111611a164.67437 164.67437 0 0 1-0.111611-5.726273c0-89.421206 72.438519-161.911738 161.792-161.911738 80.712872 0.001084 143.655822 49.530717 161.335264 128.248144zM375.731606 361.093824C289.781164 360.404656 236.306692 441.427979 236.306692 519.107319c0 1.666032 0.041177 3.322311 0.101316 4.974256h-0.101316c-54.011395 0-100.574679 23.618641-115.688703 70.576355a44.920008 44.920008 0 0 0-2.751796 10.207492c-1.673075 7.644783-4.918993 22.267937-3.473473 36.538921 4.442751 43.864042 21.366925 66.80381 57.213968 86.698667 14.023924 8.798815 29.305905 14.547302 44.362497 15.441269h389.702434c38.251005 0 70.661418-19.997799 92.663873-45.337735 22.240847-23.904169 32.101587-55.409778 32.101587-89.938624 0-74.714074-56.124952-129.950476-131.353735-130.376872-33.120169-0.187462-57.344 14.237393-75.977007 22.901299-11.068952-67.187945-61.724986-139.013689-147.374731-139.698523z" fill="#e6e6e6" p-id="11650"></path></svg>