<?xml version="1.0" standalone="no"?><!DOCTYPE svg PUBLIC "-//W3C//DTD SVG 1.1//EN" "http://www.w3.org/Graphics/SVG/1.1/DTD/svg11.dtd"><svg t="1703493286531" class="icon" viewBox="0 0 1024 1024" version="1.1" xmlns="http://www.w3.org/2000/svg" p-id="6236" xmlns:xlink="http://www.w3.org/1999/xlink" width="128" height="128"><path d="M629.333333 106.666667a192 192 0 0 1 189.141334 225.152A149.333333 149.333333 0 0 1 800 629.333333H213.205333l-5.013333-0.085333a149.333333 149.333333 0 1 1 15.808-298.197333V330.666667a149.333333 149.333333 0 0 1 235.626667-121.877334A191.957333 191.957333 0 0 1 629.333333 106.666667z" fill="#e6e6e6" p-id="6237" data-spm-anchor-id="a313x.search_index.0.i9.44d13a81p2EMTV" class=""></path><path d="M533.333333 725.333333v59.029334l51.136-29.504 21.333334 36.949333-51.114667 29.525333 51.114667 29.525334-21.333334 36.949333L533.333333 858.282667V917.333333h-42.666666v-59.050666l-51.136 29.525333-21.333334-36.949333 51.114667-29.546667-51.114667-29.504 21.333334-36.949333L490.666667 784.362667V725.333333h42.666666z" fill="#1afa29" p-id="6238" data-spm-anchor-id="a313x.search_index.0.i11.44d13a81p2EMTV" class="selected"></path><path d="M366.037333 663.402667c-5.674667 0.298667-12.373333 1.6-39.04 7.424-13.354667 3.264-25.365333 6.528-37.034666 10.112-22.677333 7.210667-50.666667 19.712-63.594667 32.661333-10.965333 11.626667-16.213333 25.621333-15.424 42.346667 1.109333 17.045333 7.552 31.445333 19.989333 43.904 12.458667 12.437333 27.2 19.221333 44.245334 19.669333 17.386667 0.789333 31.381333-4.48 42.325333-16.085333 34.197333-34.197333 48.533333-140.693333 48.533333-140.032zM814.037333 663.402667c-5.674667 0.298667-12.373333 1.6-39.04 7.424-13.354667 3.264-25.365333 6.528-37.034666 10.112-22.677333 7.210667-50.666667 19.712-63.594667 32.661333-10.965333 11.626667-16.213333 25.621333-15.424 42.346667 1.109333 17.045333 7.552 31.445333 19.989333 43.904 12.458667 12.437333 27.2 19.221333 44.245334 19.669333 17.386667 0.789333 31.381333-4.48 42.325333-16.085333 34.197333-34.197333 48.533333-140.693333 48.533333-140.032z" fill="#1afa29" p-id="6239" data-spm-anchor-id="a313x.search_index.0.i10.44d13a81p2EMTV" class="selected"></path></svg>