<?xml version="1.0" standalone="no"?><!DOCTYPE svg PUBLIC "-//W3C//DTD SVG 1.1//EN" "http://www.w3.org/Graphics/SVG/1.1/DTD/svg11.dtd"><svg t="1703493439110" class="icon" viewBox="0 0 1024 1024" version="1.1" xmlns="http://www.w3.org/2000/svg" p-id="7533" xmlns:xlink="http://www.w3.org/1999/xlink" width="128" height="128"><path d="M868.832 380.48l-102.272 30.048c-17.632 5.12-36.544-3.52-42.272-19.36l-0.032-0.128-4.16-11.552c-5.792-15.936 3.872-33.088 21.6-38.368l102.24-30.048c17.632-5.12 36.544 3.552 42.24 19.392l0.064 0.16 4.16 11.552c5.728 15.904-3.904 33.024-21.568 38.304z m-197.184-126.112c-10.784 13.472-31.648 16.544-46.656 6.88l-0.256-0.16-10.88-7.136c-15.008-9.92-18.336-28.864-7.424-42.464l63.2-78.688c10.752-13.472 31.648-16.576 46.656-6.912l0.288 0.192 10.88 7.136c15.008 9.92 18.336 28.864 7.424 42.464l-63.232 78.688z m-211.872-45.504h-13.44c-18.624-0.032-33.696-13.632-33.632-30.336V81.184c-0.064-16.736 14.976-30.336 33.6-30.4h13.504c18.624 0.032 33.696 13.632 33.632 30.336v97.344c0.064 16.736-14.976 30.336-33.6 30.4h-0.064zM292.448 254.432l-10.848 7.136c-14.912 9.792-35.808 6.912-46.72-6.464a1.6 1.6 0 0 1-0.224-0.256l-63.2-78.72c-10.912-13.568-7.584-32.512 7.424-42.432l10.88-7.136c14.88-9.792 35.808-6.912 46.72 6.464l0.224 0.256 63.2 78.688c10.88 13.6 7.584 32.512-7.456 42.464z m-105.824 125.792l-4.16 11.552c-5.6 15.84-24.48 24.608-42.144 19.584l-0.192-0.064-102.24-30.048c-17.696-5.28-27.328-22.4-21.568-38.304l4.16-11.552c5.6-15.872 24.48-24.64 42.144-19.584l0.192 0.064 102.24 30.048c17.664 5.28 27.296 22.336 21.568 38.24v0.064z m-148.48 168.544l102.24-30.048c17.6-5.152 36.544 3.488 42.272 19.328l0.064 0.16 4.16 11.552c5.792 15.936-3.872 33.088-21.6 38.368l-102.24 30.016c-17.632 5.12-36.544-3.552-42.24-19.392l-0.064-0.16-4.16-11.552c-5.728-15.904 3.904-32.992 21.568-38.272z m414.912-303.456c134.112 0.448 242.4 98.464 241.888 218.912v0.032l-0.096 1.536a261.12 261.12 0 0 0-80.928-7.104c-3.968-79.872-79.296-141.728-168.224-138.144s-157.792 71.232-153.824 151.072c2.592 52.128 36.224 98.944 88 122.592a175.936 175.936 0 0 0-86.752 34.016c-100.768-80.288-109.984-218.688-20.576-309.184C318.368 272.608 384 245.856 453.056 245.344v-0.032z" fill="" p-id="7534"></path><path d="M868.832 367.328l-102.272 30.048c-17.632 5.12-36.544-3.52-42.272-19.36l-0.032-0.128-4.16-11.552c-5.792-15.936 3.872-33.088 21.6-38.368l102.24-30.048c17.632-5.12 36.544 3.552 42.24 19.392l0.064 0.16 4.16 11.552c5.728 15.936-3.904 33.024-21.568 38.304z m-197.184-126.112c-10.784 13.472-31.648 16.576-46.656 6.912l-0.256-0.16-10.88-7.136c-15.008-9.92-18.336-28.864-7.424-42.464l63.2-78.688c10.752-13.472 31.648-16.576 46.656-6.912l0.288 0.192 10.88 7.136c15.008 9.92 18.336 28.864 7.424 42.464l-63.232 78.656z m-211.872-45.472h-13.44c-18.624-0.032-33.696-13.632-33.632-30.336V68.064c-0.064-16.736 14.976-30.336 33.6-30.4h13.504c18.624 0.032 33.696 13.632 33.632 30.336v97.344c0.064 16.736-14.976 30.336-33.6 30.4h-0.064zM292.448 241.28l-10.848 7.168c-14.912 9.792-35.808 6.88-46.72-6.496l-0.224-0.256-63.2-78.688c-10.912-13.6-7.584-32.544 7.424-42.464l10.88-7.136c14.88-9.792 35.808-6.912 46.72 6.464l0.224 0.256 63.2 78.688c10.88 13.6 7.584 32.544-7.456 42.464z m-105.824 125.792l-4.16 11.552c-5.6 15.84-24.48 24.608-42.144 19.584l-0.192-0.064-102.24-30.048c-17.696-5.28-27.328-22.4-21.568-38.304l4.16-11.552c5.6-15.84 24.48-24.608 42.144-19.584l0.192 0.064 102.24 30.048c17.664 5.28 27.296 22.336 21.568 38.24v0.064z m-148.48 168.544l102.24-30.048c17.6-5.152 36.544 3.488 42.272 19.328l0.064 0.16 4.16 11.552c5.792 15.936-3.872 33.088-21.6 38.368l-102.24 30.048c-17.632 5.12-36.544-3.552-42.24-19.392l-0.064-0.16-4.16-11.552c-5.728-15.936 3.904-33.024 21.568-38.304z m414.912-303.456c134.112 0.448 242.4 98.464 241.888 218.912v0.032l-0.096 1.536a261.12 261.12 0 0 0-80.928-7.104c-3.968-79.872-79.296-141.728-168.224-138.144-88.928 3.584-157.792 71.232-153.824 151.072 2.592 52.128 36.224 98.944 88 122.592a175.936 175.936 0 0 0-86.752 34.016c-100.768-80.288-109.984-218.688-20.576-309.184C318.368 259.488 384 232.704 453.056 232.224v-0.064z" fill="#FFCC00" p-id="7535" data-spm-anchor-id="a313x.search_index.0.i13.44d13a81p2EMTV" class=""></path><path d="M886.912 925.472c-1.856 0-3.648-0.192-5.472-0.256v0.256h-43.872v-50.336h54.848v-0.256c46.272-3.584 80.576-40.192 76.576-81.76-3.68-38.464-39.072-68.224-82.048-69.024-6.72 0.032-13.408 0.8-19.904 2.336 2.272-10.72 3.424-21.6 3.456-32.512 2.304-92.352-79.168-168.896-182.016-170.976-97.728-1.984-180.544 64.224-189.632 151.648a123.712 123.712 0 0 0-50.624-10.848c-64.992 1.568-116.256 50.176-114.528 108.544 1.632 54.272 48.736 98.592 109.024 102.592v0.256h54.848v50.336h-54.848v-0.256c-95.84-4.64-169.344-78.176-164.16-164.256 4.896-81.472 78.816-145.792 169.664-147.616 3.712 0 7.36 0.288 10.976 0.512 45.6-111.808 183.456-169.248 307.968-128.32 91.04 29.952 153.088 106.112 157.28 193.12 74.208 20.32 116.064 90.816 93.44 157.472-17.664 52-70.432 88-130.976 89.344z" fill="#8A8A8A" p-id="7536"></path><path d="M607.232 955.04c-19.616-1.472-34.304-16.832-32.896-34.464 0-19.04 32.896-54.176 32.896-54.176s32.896 35.136 32.896 54.176c1.408 17.632-13.248 32.992-32.896 34.464z m120.64-19.712s32.896 35.136 32.896 54.176c2.816 16.32-9.632 31.616-27.776 34.144-18.176 2.528-35.2-8.64-38.016-24.96a27.648 27.648 0 0 1 0-9.184c0-19.04 32.896-54.176 32.896-54.176z" fill="#8A8A8A" p-id="7537"></path><path d="M875.968 915.616c-1.856 0-3.648-0.192-5.472-0.256v0.256h-43.872V865.28h54.848v-0.256c46.272-3.584 80.576-40.192 76.576-81.76-3.68-38.464-39.072-68.224-82.048-69.024-6.72 0.032-13.408 0.8-19.904 2.336 2.272-10.72 3.424-21.6 3.456-32.512 2.304-92.352-79.168-168.896-182.016-170.976-97.728-1.984-180.544 64.224-189.632 151.648a123.712 123.712 0 0 0-50.624-10.848c-64.992 1.568-116.256 50.176-114.528 108.544 1.632 54.272 48.736 98.592 109.024 102.592v0.256h54.848v50.336h-54.848v-0.256c-95.84-4.64-169.344-78.176-164.16-164.256 4.896-81.472 78.816-145.792 169.664-147.616 3.712 0 7.36 0.288 10.976 0.512 45.6-111.808 183.456-169.248 307.968-128.32 91.04 29.952 153.088 106.112 157.28 193.12 74.208 20.32 116.064 90.816 93.44 157.472-17.696 52-70.464 88.032-130.976 89.344z" fill="#e6e6e6" p-id="7538" data-spm-anchor-id="a313x.search_index.0.i14.44d13a81p2EMTV" class="selected"></path><path d="M596.256 945.184c-19.616-1.472-34.304-16.832-32.896-34.464 0-19.04 32.896-54.176 32.896-54.176s32.896 35.136 32.896 54.176c1.408 17.632-13.248 32.992-32.896 34.464z m120.672-19.712s32.896 35.136 32.896 54.176c2.816 16.32-9.632 31.616-27.776 34.144-18.176 2.528-35.2-8.64-38.016-24.96a27.648 27.648 0 0 1 0-9.184c-0.032-19.04 32.896-54.176 32.896-54.176z" fill="#1afa29" p-id="7539" data-spm-anchor-id="a313x.search_index.0.i15.44d13a81p2EMTV" class=""></path></svg>