<?xml version="1.0" standalone="no"?><!DOCTYPE svg PUBLIC "-//W3C//DTD SVG 1.1//EN" "http://www.w3.org/Graphics/SVG/1.1/DTD/svg11.dtd"><svg t="1703493676819" class="icon" viewBox="0 0 1024 1024" version="1.1" xmlns="http://www.w3.org/2000/svg" p-id="3725" xmlns:xlink="http://www.w3.org/1999/xlink" width="128" height="128"><path d="M224.580608 472.92416c-1.429504-9.730048-2.096128-19.651584-2.096128-29.572096 0-54.848512 21.364736-106.450944 60.191744-145.179648 38.820864-38.825984 90.330112-60.19072 145.178624-60.19072 70.20544 0 134.88128 35.290112 172.84608 94.531584 3.530752 5.528576 6.86592 11.252736 9.824256 17.07008l-64.482304 33.102848c-1.908736-3.8144-4.103168-7.535616-6.38976-11.066368-24.61184-38.346752-66.39104-61.142016-111.891456-61.142016-73.260032 0-132.878336 59.618304-132.878336 132.87424 0 6.38976 0.474112 12.878848 1.33632 19.175424l-71.63904 10.396672z m184.769536-260.028416c-20.032512 0-36.246528-16.218112-36.246528-36.251648v-22.417408c0-20.027392 16.214016-36.245504 36.246528-36.245504s36.245504 16.218112 36.245504 36.245504v22.324224c0 20.12672-16.211968 36.344832-36.245504 36.344832z m-164.164608 57.992192c-9.254912 0-18.504704-3.525632-25.658368-10.587136l-15.837184-15.83616c-14.116864-14.117888-14.116864-37.102592 0-51.22048 14.117888-14.117888 37.107712-14.117888 51.2256 0l15.837184 15.83104c14.116864 14.117888 14.116864 37.108736 0 51.2256-6.9632 7.061504-16.219136 10.587136-25.567232 10.587136z m-84.611072 163.30752h-22.417408c-20.027392 0-36.245504-16.212992-36.245504-36.245504 0-20.032512 16.218112-36.251648 36.245504-36.251648h22.324224c20.032512 0 36.246528 16.218112 36.246528 36.251648 0 20.032512-16.120832 36.245504-36.153344 36.245504z m423.335936-172.464128c-9.250816 0-18.596864-3.525632-25.658368-10.587136-14.117888-14.117888-14.117888-37.107712 0-51.2256l15.83616-15.832064c14.117888-14.116864 37.107712-14.116864 51.2256 0 14.117888 14.117888 14.117888 37.103616 0 51.22048l-15.83616 15.837184c-7.057408 7.061504-16.31232 10.587136-25.567232 10.587136z m24.229888 462.828544" fill="#E69E30" p-id="3726" data-spm-anchor-id="a313x.search_index.0.i3.6b933a81s5SaET" class="selected"></path><path d="M543.94368 839.314432H523.15136l14.117888-14.117888a10.139648 10.139648 0 0 0 0-14.406656 10.1376 10.1376 0 0 0-14.405632 0l-15.92832 15.92832V802.39616c0-5.62688-4.578304-10.205184-10.205184-10.205184-5.632 0-10.20928 4.578304-10.20928 10.205184v24.416256l-16.022528-16.022528a10.139648 10.139648 0 0 0-14.406656 0 10.139648 10.139648 0 0 0 0 14.406656l14.117888 14.117888h-20.698112c-5.62688 0-10.205184 4.578304-10.205184 10.205184 0 5.625856 4.578304 10.20416 10.205184 10.20416h24.419328L456.0896 877.563904a10.1376 10.1376 0 0 0 0 14.405632c2.002944 2.002944 4.676608 2.958336 7.251968 2.958336 2.57536 0 5.15072-0.955392 7.154688-2.958336l16.022528-16.022528v20.885504c0 5.632 4.57728 10.210304 10.20928 10.210304 5.62688 0 10.205184-4.578304 10.205184-10.210304v-20.791296l15.92832 15.92832c2.002944 2.002944 4.676608 2.958336 7.251968 2.958336 2.57536 0 5.244928-0.955392 7.154688-2.958336a10.1376 10.1376 0 0 0 0-14.405632l-17.839104-17.839104h24.513536c5.629952 0 10.20928-4.578304 10.20928-10.20416 0-5.62688-4.578304-10.206208-10.208256-10.206208z" fill="#1afa29" p-id="3727" data-spm-anchor-id="a313x.search_index.0.i1.6b933a81s5SaET" class="selected"></path><path d="M844.991488 396.039168c-49.031168-49.031168-114.276352-76.022784-183.62368-76.022784-50.363392 0-99.110912 14.49984-141.17376 41.7792-29.855744 19.46112-55.328768 44.737536-74.882048 74.118144-26.804224-12.02176-55.897088-18.22208-85.756928-18.22208-56.278016 0-109.217792 21.943296-148.994048 61.719552-39.776256 39.776256-61.719552 92.716032-61.719552 148.994048 0 43.498496 13.162496 85.282816 38.063104 120.763392 24.132608 34.434048 57.616384 60.573696 96.720896 75.739136 22.417408 9.53856 46.073856 14.308352 70.401024 14.308352h12.306432l38.155264-72.497152h-50.461696c-14.690304 0-28.905472-2.952192-42.351616-8.677376l-1.33632-0.57344c-53.13536-20.414464-88.905728-72.20736-88.905728-128.965632 0-76.218368 62.0032-138.313728 138.313728-138.313728 19.84 0 39.112704 4.224 56.879104 12.316672a36.141056 36.141056 0 0 0 10.564608 11.056128c11.634688 8.010752 20.224 19.835904 24.0384 33.478656 4.578304 15.92832 19.078144 26.423296 34.909184 26.423296 3.247104 0 6.586368-0.474112 9.827328-1.33632 19.269632-5.436416 30.522368-25.467904 25.086976-44.737536-4.296704-15.429632-11.358208-29.7984-20.67968-42.513408 33.405952-56.602624 94.826496-92.367872 161.093632-92.367872 103.209984 0 187.149312 83.946496 187.149312 187.154432 0 91.76576-65.719296 169.315328-156.3392 184.388608l-1.718272 0.283648c-4.578304 0.955392-16.218112 2.008064-26.041344 2.384896l-38.248448 72.594432h31.85664c9.157632 0 32.338944-0.955392 46.74048-3.91168 59.715584-10.112 114.276352-41.01632 153.86112-87.089152 40.255488-46.930944 62.384128-106.740736 62.384128-168.650752-0.09216-69.347328-27.087872-134.592512-76.11904-183.62368z" fill="#dbdbdb" p-id="3728" data-spm-anchor-id="a313x.search_index.0.i0.6b933a81s5SaET" class=""></path><path d="M625.691648 704.70656h-20.79232l14.117888-14.117888a10.139648 10.139648 0 0 0 0-14.406656 10.139648 10.139648 0 0 0-14.406656 0l-15.92832 15.92832v-24.322048c0-5.62688-4.578304-10.205184-10.205184-10.205184-5.632 0-10.20928 4.578304-10.20928 10.205184v24.416256l-16.022528-16.022528a10.1376 10.1376 0 0 0-14.405632 0 10.139648 10.139648 0 0 0 0 14.406656l14.117888 14.117888h-20.698112c-5.62688 0-10.205184 4.578304-10.205184 10.205184 0 5.625856 4.578304 10.20416 10.205184 10.20416h24.419328l-17.839104 17.839104a10.1376 10.1376 0 0 0 0 14.405632c2.002944 2.002944 4.676608 2.958336 7.251968 2.958336 2.57536 0 5.15072-0.955392 7.154688-2.958336l16.022528-16.022528v20.885504c0 5.632 4.57728 10.210304 10.20928 10.210304 5.62688 0 10.205184-4.578304 10.205184-10.210304v-20.791296l15.92832 15.92832c2.002944 2.002944 4.676608 2.958336 7.251968 2.958336 2.57536 0 5.244928-0.955392 7.154688-2.958336a10.1376 10.1376 0 0 0 0-14.405632l-17.839104-17.839104h24.513536c5.629952 0 10.20928-4.578304 10.20928-10.20416-0.001024-5.625856-4.580352-10.205184-10.210304-10.205184z" fill="#1afa29" p-id="3729" data-spm-anchor-id="a313x.search_index.0.i2.6b933a81s5SaET" class="selected"></path></svg>