<?xml version="1.0" standalone="no"?><!DOCTYPE svg PUBLIC "-//W3C//DTD SVG 1.1//EN" "http://www.w3.org/Graphics/SVG/1.1/DTD/svg11.dtd"><svg t="1703493915534" class="icon" viewBox="0 0 1024 1024" version="1.1" xmlns="http://www.w3.org/2000/svg" p-id="6987" xmlns:xlink="http://www.w3.org/1999/xlink" width="128" height="128"><path d="M460 199.2c-40.8 10.4-84 34.4-112.8 60.8-19.2 18.4-37.6 27.2-64 31.2-148 20-206.4 190.4-99.2 288 37.6 33.6 85.6 48 138.4 41.6 31.2-4.8 41.6-2.4 59.2 11.2 25.6 20 36 20 52.8 1.6 16-17.6 16.8-25.6 3.2-25.6-5.6 0-24.8-11.2-43.2-24-28-20.8-36-23.2-54.4-16C262.4 597.6 176 541.6 176 461.6c0-74.4 46.4-121.6 119.2-121.6 41.6 0 45.6-1.6 79.2-37.6 58.4-62.4 138.4-78.4 213.6-43.2 22.4 9.6 52.8 32 67.2 49.6 25.6 28.8 31.2 31.2 62.4 28.8 47.2-4 93.6 23.2 114.4 66.4 20.8 42.4 20 72.8-2.4 111.2-29.6 52-100 76-152.8 52-17.6-8-23.2-6.4-46.4 12.8-28.8 24-33.6 30.4-42.4 58.4-4.8 17.6-4 18.4 13.6 13.6 9.6-3.2 28-12.8 40-21.6 17.6-12 29.6-14.4 60.8-9.6 103.2 13.6 188-60.8 188-165.6 0-85.6-61.6-152.8-151.2-164-29.6-4-46.4-12-67.2-32-52-49.6-148-76.8-212-60z" p-id="6988" data-spm-anchor-id="a313x.search_index.0.i16.506d3a81MZQUy1" class="" fill="#dbdbdb"></path><path d="M524.8 518.4c-1.6 3.2-20 71.2-40 150.4-29.6 116.8-34.4 144.8-25.6 153.6 8 8.8 12 8.8 19.2 0 11.2-14.4 75.2-268.8 72-288.8-2.4-17.6-18.4-27.2-25.6-15.2zM724 698.4c-16.8 31.2-20.8 48-16.8 64 12.8 51.2 84.8 40.8 84.8-12 0-20.8-33.6-94.4-43.2-94.4-1.6 0-12.8 19.2-24.8 42.4zM280 740.8c-14.4 29.6-16 40-8.8 56 15.2 33.6 72.8 22.4 72.8-14.4 0-19.2-29.6-78.4-39.2-78.4-4 0-15.2 16.8-24.8 36.8zM609.6 746.4c-16 20.8-33.6 61.6-33.6 80 0 39.2 48.8 59.2 74.4 31.2 17.6-19.2 16.8-43.2-2.4-81.6-18.4-36.8-27.2-43.2-38.4-29.6z" p-id="6989" data-spm-anchor-id="a313x.search_index.0.i17.506d3a81MZQUy1" class="selected" fill="#1afa29"></path></svg>