<?xml version="1.0" standalone="no"?><!DOCTYPE svg PUBLIC "-//W3C//DTD SVG 1.1//EN" "http://www.w3.org/Graphics/SVG/1.1/DTD/svg11.dtd"><svg t="1703494408144" class="icon" viewBox="0 0 1024 1024" version="1.1" xmlns="http://www.w3.org/2000/svg" p-id="8963" xmlns:xlink="http://www.w3.org/1999/xlink" width="128" height="128"><path d="M439.025664 680.958976h-22.695936l15.47264-15.47264a11.126784 11.126784 0 0 0 0-15.744 11.123712 11.123712 0 0 0-15.748096 0l-17.323008 17.323008v-26.39872c0-6.115328-5.003264-11.117568-11.113472-11.117568-6.114304 0-11.116544 5.00224-11.116544 11.117568v26.49088l-17.414144-17.414144a11.123712 11.123712 0 0 0-15.748096 0 11.126784 11.126784 0 0 0 0 15.744l15.47264 15.47264h-22.6048c-6.111232 0-11.113472 5.003264-11.113472 11.113472 0 6.114304 5.00224 11.117568 11.113472 11.117568h26.39872l-19.26656 19.26656a11.126784 11.126784 0 0 0 0 15.744c2.225152 2.130944 5.00224 3.243008 7.87456 3.243008 2.871296 0 5.649408-1.017856 7.873536-3.243008l17.414144-17.414144v22.695936c0 6.111232 5.00224 11.113472 11.116544 11.113472 6.110208 0 11.022336-5.00224 11.113472-11.113472v-22.6048l17.323008 17.323008c2.225152 2.130944 5.00224 3.243008 7.873536 3.243008 2.87232 0 5.743616-1.017856 7.87456-3.243008a11.126784 11.126784 0 0 0 0-15.744l-19.26656-19.26656h26.49088c6.114304 0 11.116544-5.003264 11.116544-11.117568 0-6.111232-5.00224-11.114496-11.117568-11.114496zM370.571264 819.992576h-22.62016l15.397888-15.378432a11.116544 11.116544 0 0 0 0-15.742976 11.122688 11.122688 0 0 0-15.748096 0l-17.41312 17.414144v-26.586112c0-6.111232-5.003264-11.113472-11.113472-11.113472-6.114304 0-11.117568 5.00224-11.117568 11.113472v26.494976l-17.323008-17.321984a11.116544 11.116544 0 0 0-15.742976 0 11.116544 11.116544 0 0 0 0 15.742976l15.377408 15.378432h-22.509568c-6.115328 0-11.117568 5.00224-11.117568 11.116544 0 6.110208 5.00224 11.113472 11.117568 11.113472h26.492928l-19.360768 19.361792a11.117568 11.117568 0 0 0 0 15.744c2.221056 2.130944 4.99712 3.243008 7.86944 3.243008 2.781184 0 5.65248-1.113088 7.783424-3.243008l17.41312-17.391616v22.674432c0 6.110208 5.003264 11.112448 11.117568 11.112448 6.20544 0 11.113472-5.00224 11.113472-11.206656V859.91424l17.41312 17.414144c2.224128 2.130944 5.00224 3.243008 7.873536 3.243008 2.87232 0 5.649408-1.113088 7.87456-3.243008a11.117568 11.117568 0 0 0 0-15.744l-19.361792-19.361792h26.585088c6.115328 0 11.027456-4.908032 11.117568-11.113472-0.001024-6.114304-5.00224-11.116544-11.118592-11.116544z" fill="#1afa29" p-id="8964" data-spm-anchor-id="a313x.search_index.0.i26.506d3a81MZQUy1" class="selected"></path><path d="M902.019072 451.39456c-11.792384-27.708416-28.736512-52.702208-50.266112-74.044416-21.533696-21.346304-46.526464-38.104064-74.423296-49.805312-27.334656-11.4176-56.167424-17.598464-85.938176-18.159616-2.89792-10.855424-6.64576-21.625856-11.139072-32.106496-12.45184-29.115392-30.140416-55.23456-52.794368-77.70112-22.562816-22.370304-48.868352-39.972864-78.075904-52.237312-30.327808-12.729344-62.4384-19.188736-95.481856-19.188736-33.047552 0-65.24928 6.459392-95.485952 19.188736-29.299712 12.264448-55.514112 29.867008-78.071808 52.237312-22.561792 22.3744-40.347648 48.492544-52.798464 77.70112-12.91776 30.236672-19.472384 62.252032-19.472384 95.295488 0 5.805056 0.187392 11.610112 0.658432 17.415168-20.222976 11.042816-38.665216 25.555968-54.486016 42.966016-34.075648 37.72416-52.8896 86.404096-52.8896 136.95488 0 27.708416 5.522432 54.667264 16.381952 80.132096 10.48576 24.431616 25.368576 46.340096 44.37504 65.154048 6.834176 6.740992 14.042112 12.91776 21.619712 18.63168l29.58336-68.153344c-25.182208-24.431616-40.813568-58.319872-40.813568-95.76448 0-68.431872 52.328448-125.161472 119.26016-133.11488-8.049664-19.847168-12.542976-41.473024-12.542976-64.221184 0-95.669248 78.168064-173.182976 174.682112-173.182976 80.191488 0 147.70688 53.51424 168.252416 126.488576a195.054592 195.054592 0 0 0-49.084416 30.220288c-14.979072 12.639232-16.852992 35.104768-4.21376 50.08384 7.020544 8.328192 17.13152 12.633088 27.242496 12.633088 8.14592 0 16.285696-2.80576 22.84032-8.328192 22.3744-18.818048 50.738176-29.208576 80.037888-29.208576 1.115136 0 2.215936-0.058368 3.304448-0.157696 82.614272 7.988224 147.13344 77.039616 147.13344 160.987136 0 54.479872-27.15136 102.597632-68.806656 131.897344l-15.069184 87.245824c35.479552-12.730368 67.680256-33.793024 93.612032-62.063616 39.597056-42.96704 61.405184-98.854912 61.405184-157.175808 0-31.174656-6.17472-61.785088-18.535424-90.61888z" fill="#dbdbdb" p-id="8965" data-spm-anchor-id="a313x.search_index.0.i24.506d3a81MZQUy1" class=""></path><path d="M662.58432 680.958976H639.88736l15.47264-15.47264a11.126784 11.126784 0 0 0 0-15.744 11.123712 11.123712 0 0 0-15.748096 0l-17.323008 17.323008v-26.39872c0-6.115328-5.003264-11.117568-11.113472-11.117568-6.114304 0-11.116544 5.00224-11.116544 11.117568v26.49088l-17.414144-17.414144a11.123712 11.123712 0 0 0-15.748096 0 11.126784 11.126784 0 0 0 0 15.744L582.36928 680.96h-22.6048c-6.111232 0-11.113472 5.003264-11.113472 11.113472 0 6.114304 5.00224 11.117568 11.113472 11.117568h26.39872l-19.26656 19.26656a11.126784 11.126784 0 0 0 0 15.744c2.225152 2.130944 5.00224 3.243008 7.87456 3.243008 2.871296 0 5.649408-1.017856 7.873536-3.243008l17.414144-17.414144v22.695936c0 6.111232 5.00224 11.113472 11.116544 11.113472 6.110208 0 11.022336-5.00224 11.113472-11.113472v-22.6048l17.323008 17.323008c2.225152 2.130944 5.00224 3.243008 7.873536 3.243008 2.87232 0 5.743616-1.017856 7.87456-3.243008a11.126784 11.126784 0 0 0 0-15.744l-19.26656-19.26656h26.49088c6.114304 0 11.116544-5.003264 11.116544-11.117568 0-6.111232-5.00224-11.114496-11.116544-11.114496zM594.128896 819.992576h-22.62016l15.397888-15.378432a11.116544 11.116544 0 0 0 0-15.742976 11.122688 11.122688 0 0 0-15.748096 0l-17.41312 17.414144v-26.586112c0-6.111232-5.003264-11.113472-11.113472-11.113472-6.114304 0-11.117568 5.00224-11.117568 11.113472v26.494976l-17.323008-17.321984a11.116544 11.116544 0 0 0-15.742976 0 11.116544 11.116544 0 0 0 0 15.742976l15.377408 15.378432h-22.509568c-6.115328 0-11.117568 5.00224-11.117568 11.116544 0 6.110208 5.00224 11.113472 11.117568 11.113472h26.492928l-19.360768 19.361792a11.117568 11.117568 0 0 0 0 15.744c2.221056 2.130944 4.99712 3.243008 7.86944 3.243008 2.781184 0 5.65248-1.113088 7.783424-3.243008l17.41312-17.391616v22.674432c0 6.110208 5.003264 11.112448 11.117568 11.112448 6.20544 0 11.113472-5.00224 11.113472-11.206656V859.91424l17.41312 17.414144c2.224128 2.130944 5.00224 3.243008 7.873536 3.243008 2.87232 0 5.649408-1.113088 7.87456-3.243008a11.117568 11.117568 0 0 0 0-15.744l-19.361792-19.361792h26.585088c6.115328 0 11.027456-4.908032 11.117568-11.113472 0-6.114304-5.00224-11.116544-11.118592-11.116544z" fill="#1afa29" p-id="8966" data-spm-anchor-id="a313x.search_index.0.i25.506d3a81MZQUy1" class="selected"></path></svg>