<?xml version="1.0" standalone="no"?><!DOCTYPE svg PUBLIC "-//W3C//DTD SVG 1.1//EN" "http://www.w3.org/Graphics/SVG/1.1/DTD/svg11.dtd"><svg t="1703494458457" class="icon" viewBox="0 0 1024 1024" version="1.1" xmlns="http://www.w3.org/2000/svg" p-id="10163" xmlns:xlink="http://www.w3.org/1999/xlink" width="128" height="128"><path d="M511.374336 879.80544c-5.467136 0-11.022336-1.276928-16.212992-4.10112-16.851968-9.020416-23.231488-29.969408-14.304256-46.8224l17.764352-33.33632c9.01632-16.852992 29.970432-23.232512 46.824448-14.30528 16.847872 9.020416 23.226368 29.970432 14.299136 46.823424l-17.764352 33.342464c-6.286336 11.7504-18.219008 18.399232-30.606336 18.399232z m75.603968-132.360192c-5.462016 0-11.022336-1.277952-16.211968-4.097024-16.852992-9.020416-23.227392-29.969408-14.30016-46.823424l17.76128-33.34144c9.020416-16.852992 29.969408-23.227392 46.823424-14.30016 16.852992 9.01632 23.226368 29.969408 14.30016 46.818304l-17.76128 33.34144c-6.285312 11.752448-18.219008 18.402304-30.611456 18.402304zM342.397952 879.80544c-5.467136 0-11.021312-1.276928-16.217088-4.10112-16.852992-9.020416-23.226368-29.969408-14.30016-46.8224l17.76128-33.33632c9.020416-16.852992 29.969408-23.232512 46.8224-14.30528 16.852992 9.020416 23.232512 29.970432 14.30528 46.823424l-17.765376 33.342464c-6.285312 11.7504-18.219008 18.399232-30.606336 18.399232z m75.606016-132.360192c-5.467136 0-11.022336-1.277952-16.212992-4.097024-16.851968-9.020416-23.230464-29.969408-14.304256-46.823424l17.764352-33.34144c9.01632-16.852992 29.970432-23.227392 46.824448-14.30016 16.847872 9.01632 23.226368 29.969408 14.299136 46.818304l-17.764352 33.34144c-6.286336 11.752448-18.219008 18.402304-30.606336 18.402304z m0 0" fill="#1afa29" p-id="10164" data-spm-anchor-id="a313x.search_index.0.i29.506d3a81MZQUy1" class="selected"></path><path d="M902.436864 461.048832c-11.751424-27.598848-28.604416-52.466688-50.101248-73.693184-21.407744-21.224448-46.369792-37.896192-74.150912-49.553408-27.692032-11.662336-57.02144-17.765376-87.268352-18.12992-3.006464-11.38688-6.832128-22.679552-11.474944-33.6128-12.392448-28.96896-30.062592-55.020544-52.560896-77.340672-22.5024-22.313984-48.647168-39.803904-77.79328-52.013056-30.152704-12.658688-62.217216-19.037184-95.100928-19.037184-32.887808 0-64.95232 6.378496-95.099904 19.037184-29.152256 12.209152-55.297024 29.698048-77.794304 52.013056-22.501376 22.320128-40.173568 48.371712-52.560896 77.340672-12.845056 30.05952-19.31264 62.034944-19.31264 94.918656 0 6.284288 0.272384 12.5696 0.730112 18.853888-20.677632 11.11552-39.44448 25.691136-55.479296 43.451392-33.977344 37.44256-52.64896 85.814272-52.64896 136.097792 0 27.505664 5.467136 54.380544 16.305152 79.612928 10.385408 24.231936 25.232384 46.093312 44.08832 64.765952 18.860032 18.676736 40.720384 33.34144 65.130496 43.633664 14.30528 6.012928 29.152256 10.385408 44.363776 13.027328l34.80064-66.224128c-74.609664-0.275456-135.549952-60.8512-135.549952-134.815744 0-68.77696 52.65408-125.800448 119.87968-133.820416-8.014848-19.948544-12.5696-41.715712-12.5696-64.582656 0-96.195584 78.61248-174.077952 175.625216-174.077952 80.483328 0 148.363264 53.669888 169.15968 126.83264a195.217408 195.217408 0 0 0-54.017024 32.21504c-14.574592 12.29824-16.39424 34.159616-4.100096 48.736256 6.832128 8.103936 16.669696 12.294144 26.509312 12.294144 7.832576 0 15.75936-2.6368 22.226944-8.103936 22.683648-19.042304 51.559424-29.604864 81.253376-29.604864 0.765952 0 1.523712-0.033792 2.276352-0.082944 86.17984 4.907008 154.493952 75.684864 154.493952 162.409472 0 84.443136-64.85504 153.76384-147.844096 161.871872-4.827136 0.546816-9.657344 0.817152-14.57152 0.817152h-4.554752l-36.436992 69.231616h40.991744c7.00928 0 14.205952-0.364544 21.58592-1.18272 57.208832-5.648384 110.134272-31.976448 149.030912-74.333184 39.438336-42.811392 61.12256-98.378752 61.12256-156.40576-0.094208-31.335424-6.378496-61.852672-18.583552-90.546176z" fill="#dbdbdb" p-id="10165" data-spm-anchor-id="a313x.search_index.0.i28.506d3a81MZQUy1" class=""></path></svg>